Alpha Lyrae-Medium.ufo
<glyph name="exclam" format="2">
	<advance width="260"/>
	<unicode hex="0021"/>
	<outline>
		<contour>
			<point x="107" y="184" type="line"/>
			<point x="153" y="184" type="line"/>
			<point x="177" y="493" type="line"/>
			<point x="177" y="706" type="line"/>
			<point x="81" y="706" type="line"/>
			<point x="81" y="493" type="line"/>
		</contour>
		<contour>
			<point x="74" y="0" type="line"/>
			<point x="186" y="0" type="line"/>
			<point x="186" y="112" type="line"/>
			<point x="74" y="112" type="line"/>
		</contour>
	</outline>
</glyph>
<glyph name="quotedbl" format="2">
	<advance width="433"/>
	<unicode hex="0022"/>
	<outline>
		<contour>
			<point x="260" y="456" type="line"/>
			<point x="328" y="456" type="line"/>
			<point x="328" y="706" type="line"/>
			<point x="260" y="706" type="line"/>
		</contour>
		<contour>
			<point x="105" y="456" type="line"/>
			<point x="173" y="456" type="line"/>
			<point x="173" y="706" type="line"/>
			<point x="105" y="706" type="line"/>
		</contour>
	</outline>
</glyph>
<glyph name="numbersign" format="2">
	<advance width="555"/>
	<unicode hex="0023"/>
	<outline>
		<contour>
			<point x="98" y="0" type="line"/>
			<point x="167" y="0" type="line"/>
			<point x="269" y="690" type="line"/>
			<point x="200" y="690" type="line"/>
		</contour>
		<contour>
			<point x="34" y="206" type="line"/>
			<point x="493" y="206" type="line"/>
			<point x="493" y="274" type="line"/>
			<point x="34" y="274" type="line"/>
		</contour>
		<contour>
			<point x="292" y="0" type="line"/>
			<point x="361" y="0" type="line"/>
			<point x="462" y="690" type="line"/>
			<point x="393" y="690" type="line"/>
		</contour>
		<contour>
			<point x="60" y="425" type="line"/>
			<point x="521" y="425" type="line"/>
			<point x="521" y="493" type="line"/>
			<point x="60" y="493" type="line"/>
		</contour>
	</outline>
</glyph>
<glyph name="dollar" format="2">
	<advance width="590"/>
	<unicode hex="0024"/>
	<outline>
		<contour>
			<point x="290" y="-16" type="curve" smooth="yes"/>
			<point x="422" y="-16"/>
			<point x="545" y="52"/>
			<point x="545" y="193" type="curve" smooth="yes"/>
			<point x="545" y="350"/>
			<point x="406" y="384"/>
			<point x="302" y="411" type="curve" smooth="yes"/>
			<point x="230" y="430"/>
			<point x="150" y="462"/>
			<point x="150" y="540" type="curve" smooth="yes"/>
			<point x="150" y="611"/>
			<point x="222" y="642"/>
			<point x="281" y="642" type="curve" smooth="yes"/>
			<point x="341" y="642"/>
			<point x="409" y="617"/>
			<point x="431" y="523" type="curve"/>
			<point x="516" y="555" type="line"/>
			<point x="481" y="674"/>
			<point x="385" y="722"/>
			<point x="285" y="722" type="curve" smooth="yes"/>
			<point x="172" y="722"/>
			<point x="59" y="656"/>
			<point x="59" y="535" type="curve" smooth="yes"/>
			<point x="59" y="398"/>
			<point x="179" y="354"/>
			<point x="272" y="328" type="curve" smooth="yes"/>
			<point x="357" y="304"/>
			<point x="455" y="279"/>
			<point x="455" y="188" type="curve" smooth="yes"/>
			<point x="455" y="100"/>
			<point x="368" y="65"/>
			<point x="293" y="65" type="curve" smooth="yes"/>
			<point x="231" y="65"/>
			<point x="159" y="94"/>
			<point x="137" y="183" type="curve"/>
			<point x="51" y="152" type="line"/>
			<point x="85" y="34"/>
			<point x="186" y="-16"/>
		</contour>
		<contour>
			<point x="326" y="34" type="line"/>
			<point x="250" y="34" type="line"/>
			<point x="250" y="-116" type="line"/>
			<point x="326" y="-116" type="line"/>
		</contour>
		<contour>
			<point x="250" y="674" type="line"/>
			<point x="326" y="674" type="line"/>
			<point x="326" y="822" type="line"/>
			<point x="250" y="822" type="line"/>
		</contour>
	</outline>
</glyph>
<glyph name="percent" format="2">
	<advance width="987"/>
	<unicode hex="0025"/>
	<outline>
		<contour>
			<point x="195" y="0" type="line"/>
			<point x="282" y="0" type="line"/>
			<point x="792" y="706" type="line"/>
			<point x="706" y="706" type="line"/>
		</contour>
		<contour>
			<point x="745" y="-11" type="curve" smooth="yes"/>
			<point x="848" y="-11"/>
			<point x="895" y="74"/>
			<point x="895" y="189" type="curve" smooth="yes"/>
			<point x="895" y="305"/>
			<point x="848" y="389"/>
			<point x="745" y="389" type="curve" smooth="yes"/>
			<point x="643" y="389"/>
			<point x="596" y="304"/>
			<point x="596" y="189" type="curve" smooth="yes"/>
			<point x="596" y="74"/>
			<point x="643" y="-11"/>
		</contour>
		<contour>
			<point x="241" y="311" type="curve" smooth="yes"/>
			<point x="343" y="311"/>
			<point x="391" y="396"/>
			<point x="391" y="511" type="curve" smooth="yes"/>
			<point x="391" y="627"/>
			<point x="343" y="711"/>
			<point x="241" y="711" type="curve" smooth="yes"/>
			<point x="139" y="711"/>
			<point x="92" y="626"/>
			<point x="92" y="511" type="curve" smooth="yes"/>
			<point x="92" y="396"/>
			<point x="139" y="311"/>
		</contour>
		<contour>
			<point x="745" y="44" type="curve" smooth="yes"/>
			<point x="690" y="44"/>
			<point x="671" y="107"/>
			<point x="671" y="189" type="curve" smooth="yes"/>
			<point x="671" y="270"/>
			<point x="690" y="334"/>
			<point x="745" y="334" type="curve" smooth="yes"/>
			<point x="800" y="334"/>
			<point x="820" y="270"/>
			<point x="820" y="189" type="curve" smooth="yes"/>
			<point x="820" y="107"/>
			<point x="800" y="44"/>
		</contour>
		<contour>
			<point x="241" y="366" type="curve" smooth="yes"/>
			<point x="185" y="366"/>
			<point x="167" y="429"/>
			<point x="167" y="511" type="curve" smooth="yes"/>
			<point x="167" y="593"/>
			<point x="185" y="656"/>
			<point x="241" y="656" type="curve" smooth="yes"/>
			<point x="297" y="656"/>
			<point x="316" y="593"/>
			<point x="316" y="511" type="curve" smooth="yes"/>
			<point x="316" y="429"/>
			<point x="297" y="366"/>
		</contour>
	</outline>
</glyph>
<glyph name="ampersand" format="2">
	<advance width="630"/>
	<unicode hex="0026"/>
	<outline>
		<contour>
			<point x="254" y="-12" type="curve" smooth="yes"/>
			<point x="421" y="-12"/>
			<point x="547" y="157"/>
			<point x="549" y="338" type="curve"/>
			<point x="473" y="338" type="line"/>
			<point x="470" y="202"/>
			<point x="384" y="63"/>
			<point x="256" y="63" type="curve" smooth="yes"/>
			<point x="170" y="63"/>
			<point x="123" y="123"/>
			<point x="123" y="179" type="curve" smooth="yes"/>
			<point x="123" y="256"/>
			<point x="162" y="303"/>
			<point x="284" y="364" type="curve" smooth="yes"/>
			<point x="377" y="412"/>
			<point x="454" y="474"/>
			<point x="454" y="567" type="curve" smooth="yes"/>
			<point x="454" y="650"/>
			<point x="389" y="716"/>
			<point x="293" y="716" type="curve" smooth="yes"/>
			<point x="183" y="716"/>
			<point x="121" y="645"/>
			<point x="121" y="570" type="curve" smooth="yes"/>
			<point x="121" y="464"/>
			<point x="264" y="314"/>
			<point x="534" y="0" type="curve"/>
			<point x="645" y="0" type="line"/>
			<point x="347" y="343"/>
			<point x="206" y="491"/>
			<point x="206" y="566" type="curve" smooth="yes"/>
			<point x="206" y="604"/>
			<point x="235" y="641"/>
			<point x="287" y="641" type="curve" smooth="yes"/>
			<point x="338" y="641"/>
			<point x="369" y="606"/>
			<point x="369" y="563" type="curve" smooth="yes"/>
			<point x="369" y="496"/>
			<point x="304" y="456"/>
			<point x="237" y="419" type="curve" smooth="yes"/>
			<point x="85" y="337"/>
			<point x="33" y="279"/>
			<point x="33" y="173" type="curve" smooth="yes"/>
			<point x="33" y="81"/>
			<point x="112" y="-12"/>
		</contour>
	</outline>
</glyph>
<glyph name="quotesingle" format="2">
	<advance width="278"/>
	<unicode hex="0027"/>
	<outline>
		<contour>
			<point x="105" y="456" type="line"/>
			<point x="173" y="456" type="line"/>
			<point x="173" y="706" type="line"/>
			<point x="105" y="706" type="line"/>
		</contour>
	</outline>
</glyph>
<glyph name="parenleft" format="2">
	<advance width="259"/>
	<unicode hex="0028"/>
	<outline>
		<contour>
			<point x="213" y="-198" type="curve"/>
			<point x="254" y="-161" type="line"/>
			<point x="181" y="-65"/>
			<point x="137" y="94"/>
			<point x="137" y="262" type="curve" smooth="yes"/>
			<point x="137" y="430"/>
			<point x="181" y="586"/>
			<point x="254" y="685" type="curve"/>
			<point x="213" y="722" type="line"/>
			<point x="119" y="611"/>
			<point x="47" y="448"/>
			<point x="47" y="262" type="curve" smooth="yes"/>
			<point x="47" y="76"/>
			<point x="126" y="-100"/>
		</contour>
	</outline>
</glyph>
<glyph name="asterisk" format="2">
	<advance width="361"/>
	<unicode hex="002A"/>
	<outline>
		<contour>
			<point x="105" y="409" type="line"/>
			<point x="189" y="523" type="line"/>
			<point x="172" y="523" type="line"/>
			<point x="256" y="409" type="line"/>
			<point x="302" y="440" type="line"/>
			<point x="215" y="550" type="line"/>
			<point x="205" y="537" type="line"/>
			<point x="337" y="576" type="line"/>
			<point x="319" y="626" type="line"/>
			<point x="189" y="583" type="line"/>
			<point x="203" y="570" type="line"/>
			<point x="207" y="706" type="line"/>
			<point x="153" y="706" type="line"/>
			<point x="157" y="573" type="line"/>
			<point x="168" y="583" type="line"/>
			<point x="43" y="626" type="line"/>
			<point x="24" y="576" type="line"/>
			<point x="153" y="537" type="line"/>
			<point x="146" y="550" type="line"/>
			<point x="59" y="440" type="line"/>
		</contour>
	</outline>
</glyph>
<glyph name="plus" format="2">
	<advance width="600"/>
	<unicode hex="002B"/>
	<outline>
		<contour>
			<point x="265" y="0" type="line"/>
			<point x="335" y="0" type="line"/>
			<point x="335" y="506" type="line"/>
			<point x="265" y="506" type="line"/>
		</contour>
		<contour>
			<point x="48" y="218" type="line"/>
			<point x="552" y="218" type="line"/>
			<point x="552" y="288" type="line"/>
			<point x="48" y="288" type="line"/>
		</contour>
	</outline>
</glyph>
<glyph name="comma" format="2">
	<advance width="278"/>
	<unicode hex="002C"/>
	<guideline x="96" y="-119" angle="109.4766"/>
	<outline>
		<contour>
			<point x="116" y="-145" type="line"/>
			<point x="180" y="-101"/>
			<point x="195" y="-51"/>
			<point x="195" y="32" type="curve" smooth="yes"/>
			<point x="195" y="112" type="line"/>
			<point x="83" y="112" type="line"/>
			<point x="83" y="0" type="line"/>
			<point x="175" y="0" type="line"/>
			<point x="141" y="15" type="line"/>
			<point x="145" y="-35"/>
			<point x="133" y="-68"/>
			<point x="84" y="-98" type="curve"/>
		</contour>
	</outline>
</glyph>
<glyph name="hyphen" format="2">
	<advance width="389"/>
	<unicode hex="002D"/>
	<outline>
		<contour>
			<point x="50" y="238" type="line"/>
			<point x="339" y="238" type="line"/>
			<point x="339" y="318" type="line"/>
			<point x="50" y="318" type="line"/>
		</contour>
	</outline>
</glyph>
<glyph name="period" format="2">
	<advance width="278"/>
	<unicode hex="002E"/>
	<outline>
		<contour>
			<point x="83" y="0" type="line"/>
			<point x="195" y="0" type="line"/>
			<point x="195" y="112" type="line"/>
			<point x="83" y="112" type="line"/>
		</contour>
	</outline>
</glyph>
<glyph name="zero" format="2">
	<advance width="572"/>
	<unicode hex="0030"/>
	<outline>
		<contour>
			<point x="286" y="-11" type="curve" smooth="yes"/>
			<point x="433" y="-11"/>
			<point x="522" y="109"/>
			<point x="522" y="353" type="curve" smooth="yes"/>
			<point x="522" y="599"/>
			<point x="433" y="716"/>
			<point x="286" y="716" type="curve" smooth="yes"/>
			<point x="139" y="716"/>
			<point x="50" y="599"/>
			<point x="50" y="353" type="curve" smooth="yes"/>
			<point x="50" y="109"/>
			<point x="139" y="-11"/>
		</contour>
		<contour>
			<point x="286" y="64" type="curve" smooth="yes"/>
			<point x="193" y="64"/>
			<point x="140" y="158"/>
			<point x="140" y="353" type="curve" smooth="yes"/>
			<point x="140" y="550"/>
			<point x="193" y="641"/>
			<point x="286" y="641" type="curve" smooth="yes"/>
			<point x="379" y="641"/>
			<point x="432" y="550"/>
			<point x="432" y="353" type="curve" smooth="yes"/>
			<point x="432" y="158"/>
			<point x="379" y="64"/>
		</contour>
	</outline>
</glyph>
<glyph name="one" format="2">
	<advance width="423"/>
	<unicode hex="0031"/>
	<outline>
		<contour>
			<point x="216" y="0" type="line"/>
			<point x="301" y="0" type="line"/>
			<point x="301" y="716" type="line"/>
			<point x="216" y="716" type="line"/>
			<point x="42" y="619" type="line"/>
			<point x="42" y="531" type="line"/>
			<point x="261" y="648" type="line"/>
			<point x="216" y="693" type="line"/>
		</contour>
	</outline>
</glyph>
<glyph name="two" format="2">
	<advance width="565"/>
	<unicode hex="0032"/>
	<outline>
		<contour>
			<point x="46" y="0" type="curve"/>
			<point x="506" y="0" type="line"/>
			<point x="506" y="75" type="line"/>
			<point x="129" y="75" type="line"/>
			<point x="140" y="65" type="line"/>
			<point x="161" y="242"/>
			<point x="513" y="285"/>
			<point x="513" y="521" type="curve" smooth="yes"/>
			<point x="513" y="639"/>
			<point x="428" y="716"/>
			<point x="294" y="716" type="curve" smooth="yes"/>
			<point x="183" y="716"/>
			<point x="94" y="668"/>
			<point x="61" y="549" type="curve"/>
			<point x="146" y="517" type="line"/>
			<point x="166" y="615"/>
			<point x="226" y="641"/>
			<point x="290" y="641" type="curve" smooth="yes"/>
			<point x="375" y="641"/>
			<point x="423" y="594"/>
			<point x="423" y="522" type="curve" smooth="yes"/>
			<point x="423" y="307"/>
			<point x="46" y="311"/>
		</contour>
	</outline>
</glyph>
<glyph name="three" format="2">
	<advance width="554"/>
	<unicode hex="0033"/>
	<outline>
		<contour>
			<point x="267" y="-11" type="curve" smooth="yes"/>
			<point x="414" y="-11"/>
			<point x="508" y="73"/>
			<point x="508" y="198" type="curve" smooth="yes"/>
			<point x="508" y="290"/>
			<point x="470" y="349"/>
			<point x="380" y="381" type="curve"/>
			<point x="443" y="409"/>
			<point x="476" y="483"/>
			<point x="476" y="536" type="curve" smooth="yes"/>
			<point x="476" y="642"/>
			<point x="397" y="716"/>
			<point x="275" y="716" type="curve" smooth="yes"/>
			<point x="164" y="716"/>
			<point x="75" y="668"/>
			<point x="42" y="549" type="curve"/>
			<point x="127" y="517" type="line"/>
			<point x="147" y="615"/>
			<point x="207" y="641"/>
			<point x="271" y="641" type="curve" smooth="yes"/>
			<point x="342" y="641"/>
			<point x="387" y="595"/>
			<point x="387" y="537" type="curve" smooth="yes"/>
			<point x="387" y="479"/>
			<point x="348" y="410"/>
			<point x="255" y="410" type="curve" smooth="yes"/>
			<point x="183" y="410" type="line"/>
			<point x="183" y="340" type="line"/>
			<point x="266" y="340" type="line" smooth="yes"/>
			<point x="332" y="340"/>
			<point x="418" y="311"/>
			<point x="418" y="194" type="curve" smooth="yes"/>
			<point x="418" y="119"/>
			<point x="361" y="64"/>
			<point x="267" y="64" type="curve" smooth="yes"/>
			<point x="198" y="64"/>
			<point x="138" y="93"/>
			<point x="116" y="183" type="curve"/>
			<point x="30" y="152" type="line"/>
			<point x="64" y="38"/>
			<point x="152" y="-11"/>
		</contour>
	</outline>
</glyph>
<glyph name="four" format="2">
	<advance width="556"/>
	<unicode hex="0034"/>
	<outline>
		<contour>
			<point x="340" y="0" type="line"/>
			<point x="420" y="0" type="line"/>
			<point x="420" y="715" type="line"/>
			<point x="352" y="715" type="line"/>
			<point x="28" y="248" type="line"/>
			<point x="28" y="166" type="line"/>
			<point x="515" y="166" type="line"/>
			<point x="515" y="241" type="line"/>
			<point x="86" y="241" type="line"/>
			<point x="93" y="230" type="line"/>
			<point x="343" y="598" type="line"/>
			<point x="340" y="600" type="line"/>
		</contour>
	</outline>
</glyph>
<glyph name="six" format="2">
	<advance width="569"/>
	<unicode hex="0036"/>
	<outline>
		<contour>
			<point x="300" y="-11" type="curve" smooth="yes"/>
			<point x="438" y="-11"/>
			<point x="531" y="87"/>
			<point x="531" y="225" type="curve" smooth="yes"/>
			<point x="531" y="379"/>
			<point x="428" y="457"/>
			<point x="311" y="457" type="curve" smooth="yes"/>
			<point x="227" y="457"/>
			<point x="155" y="420"/>
			<point x="114" y="315" type="curve"/>
			<point x="134" y="326" type="line"/>
			<point x="139" y="577"/>
			<point x="203" y="641"/>
			<point x="305" y="641" type="curve" smooth="yes"/>
			<point x="359" y="641"/>
			<point x="414" y="617"/>
			<point x="431" y="526" type="curve"/>
			<point x="516" y="558" type="line"/>
			<point x="486" y="671"/>
			<point x="403" y="716"/>
			<point x="301" y="716" type="curve" smooth="yes"/>
			<point x="109" y="716"/>
			<point x="51" y="567"/>
			<point x="50" y="304" type="curve" smooth="yes"/>
			<point x="49" y="112"/>
			<point x="131" y="-11"/>
		</contour>
		<contour>
			<point x="297" y="64" type="curve" smooth="yes"/>
			<point x="212" y="64"/>
			<point x="151" y="124"/>
			<point x="151" y="218" type="curve" smooth="yes"/>
			<point x="151" y="326"/>
			<point x="211" y="382"/>
			<point x="297" y="382" type="curve" smooth="yes"/>
			<point x="374" y="382"/>
			<point x="441" y="328"/>
			<point x="441" y="218" type="curve" smooth="yes"/>
			<point x="441" y="127"/>
			<point x="378" y="64"/>
		</contour>
	</outline>
</glyph>
<glyph name="seven" format="2">
	<advance width="549"/>
	<unicode hex="0037"/>
	<outline>
		<contour>
			<point x="142" y="0" type="curve"/>
			<point x="237" y="0" type="line"/>
			<point x="251" y="234"/>
			<point x="365" y="490"/>
			<point x="509" y="633" type="curve"/>
			<point x="509" y="706" type="line"/>
			<point x="50" y="706" type="line"/>
			<point x="50" y="626" type="line"/>
			<point x="467" y="626" type="line"/>
			<point x="456" y="662" type="line"/>
			<point x="274" y="471"/>
			<point x="159" y="263"/>
		</contour>
	</outline>
</glyph>
<glyph name="eight" format="2">
	<advance width="564"/>
	<unicode hex="0038"/>
	<outline>
		<contour>
			<point x="282" y="-11" type="curve" smooth="yes"/>
			<point x="427" y="-11"/>
			<point x="520" y="82"/>
			<point x="520" y="198" type="curve" smooth="yes"/>
			<point x="520" y="290"/>
			<point x="485" y="347"/>
			<point x="399" y="388" type="curve"/>
			<point x="443" y="410"/>
			<point x="490" y="467"/>
			<point x="490" y="531" type="curve" smooth="yes"/>
			<point x="490" y="641"/>
			<point x="409" y="716"/>
			<point x="284" y="716" type="curve" smooth="yes"/>
			<point x="158" y="716"/>
			<point x="72" y="641"/>
			<point x="72" y="531" type="curve" smooth="yes"/>
			<point x="72" y="462"/>
			<point x="118" y="410"/>
			<point x="168" y="388" type="curve"/>
			<point x="79" y="349"/>
			<point x="44" y="287"/>
			<point x="44" y="198" type="curve" smooth="yes"/>
			<point x="44" y="82"/>
			<point x="138" y="-11"/>
		</contour>
		<contour>
			<point x="282" y="64" type="curve" smooth="yes"/>
			<point x="200" y="64"/>
			<point x="134" y="127"/>
			<point x="134" y="203" type="curve" smooth="yes"/>
			<point x="134" y="281"/>
			<point x="191" y="340"/>
			<point x="280" y="340" type="curve" smooth="yes"/>
			<point x="375" y="340"/>
			<point x="430" y="283"/>
			<point x="430" y="203" type="curve" smooth="yes"/>
			<point x="430" y="125"/>
			<point x="366" y="64"/>
		</contour>
		<contour>
			<point x="284" y="415" type="curve" smooth="yes"/>
			<point x="208" y="415"/>
			<point x="160" y="460"/>
			<point x="160" y="528" type="curve" smooth="yes"/>
			<point x="160" y="594"/>
			<point x="211" y="641"/>
			<point x="284" y="641" type="curve" smooth="yes"/>
			<point x="355" y="641"/>
			<point x="403" y="594"/>
			<point x="403" y="528" type="curve" smooth="yes"/>
			<point x="403" y="463"/>
			<point x="357" y="415"/>
		</contour>
	</outline>
</glyph>
<glyph name="nine" format="2">
	<advance width="563"/>
	<unicode hex="0039"/>
	<outline>
		<contour>
			<point x="268" y="-11" type="curve" smooth="yes"/>
			<point x="455" y="-11"/>
			<point x="512" y="144"/>
			<point x="513" y="401" type="curve" smooth="yes"/>
			<point x="514" y="593"/>
			<point x="434" y="716"/>
			<point x="268" y="716" type="curve" smooth="yes"/>
			<point x="131" y="716"/>
			<point x="38" y="618"/>
			<point x="38" y="480" type="curve" smooth="yes"/>
			<point x="38" y="326"/>
			<point x="141" y="248"/>
			<point x="257" y="248" type="curve" smooth="yes"/>
			<point x="339" y="248"/>
			<point x="408" y="285"/>
			<point x="449" y="394" type="curve"/>
			<point x="429" y="383" type="line"/>
			<point x="424" y="151"/>
			<point x="372" y="64"/>
			<point x="264" y="64" type="curve" smooth="yes"/>
			<point x="208" y="64"/>
			<point x="155" y="88"/>
			<point x="138" y="179" type="curve"/>
			<point x="53" y="147" type="line"/>
			<point x="83" y="34"/>
			<point x="166" y="-11"/>
		</contour>
		<contour>
			<point x="271" y="323" type="curve" smooth="yes"/>
			<point x="195" y="323"/>
			<point x="128" y="377"/>
			<point x="128" y="487" type="curve" smooth="yes"/>
			<point x="128" y="578"/>
			<point x="191" y="641"/>
			<point x="271" y="641" type="curve" smooth="yes"/>
			<point x="353" y="641"/>
			<point x="412" y="581"/>
			<point x="412" y="487" type="curve" smooth="yes"/>
			<point x="412" y="383"/>
			<point x="354" y="323"/>
		</contour>
	</outline>
</glyph>
<glyph name="semicolon" format="2">
	<advance width="278"/>
	<unicode hex="003B"/>
	<outline>
		<contour>
			<point x="116" y="-145" type="line"/>
			<point x="180" y="-101"/>
			<point x="195" y="-51"/>
			<point x="195" y="32" type="curve" smooth="yes"/>
			<point x="195" y="112" type="line"/>
			<point x="83" y="112" type="line"/>
			<point x="83" y="0" type="line"/>
			<point x="175" y="0" type="line"/>
			<point x="141" y="15" type="line"/>
			<point x="145" y="-35"/>
			<point x="133" y="-68"/>
			<point x="84" y="-98" type="curve"/>
		</contour>
		<contour>
			<point x="83" y="406" type="line"/>
			<point x="195" y="406" type="line"/>
			<point x="195" y="518" type="line"/>
			<point x="83" y="518" type="line"/>
		</contour>
	</outline>
</glyph>
<glyph name="greater" format="2">
	<advance width="600"/>
	<unicode hex="003E"/>
	<outline>
		<contour>
			<point x="46" y="-8" type="line"/>
			<point x="554" y="222" type="line"/>
			<point x="554" y="284" type="line"/>
			<point x="46" y="514" type="line"/>
			<point x="46" y="437" type="line"/>
			<point x="506" y="228" type="line"/>
			<point x="506" y="278" type="line"/>
			<point x="46" y="69" type="line"/>
		</contour>
	</outline>
</glyph>
<glyph name="question" format="2">
	<advance width="554"/>
	<unicode hex="003F"/>
	<outline>
		<contour>
			<point x="228" y="172" type="curve"/>
			<point x="316" y="172" type="line"/>
			<point x="312" y="363"/>
			<point x="488" y="355"/>
			<point x="488" y="520" type="curve" smooth="yes"/>
			<point x="488" y="645"/>
			<point x="408" y="722"/>
			<point x="281" y="722" type="curve" smooth="yes"/>
			<point x="178" y="722"/>
			<point x="88" y="674"/>
			<point x="55" y="555" type="curve"/>
			<point x="140" y="523" type="line"/>
			<point x="160" y="621"/>
			<point x="221" y="647"/>
			<point x="277" y="647" type="curve" smooth="yes"/>
			<point x="354" y="647"/>
			<point x="398" y="600"/>
			<point x="398" y="528" type="curve" smooth="yes"/>
			<point x="398" y="389"/>
			<point x="228" y="382"/>
		</contour>
		<contour>
			<point x="216" y="0" type="line"/>
			<point x="328" y="0" type="line"/>
			<point x="328" y="112" type="line"/>
			<point x="216" y="112" type="line"/>
		</contour>
	</outline>
</glyph>
<glyph name="at" format="2">
	<advance width="900"/>
	<unicode hex="0040"/>
	<outline>
		<contour>
			<point x="462" y="706" type="curve" smooth="yes"/>
			<point x="211" y="706"/>
			<point x="46" y="524"/>
			<point x="46" y="280" type="curve" smooth="yes"/>
			<point x="46" y="37"/>
			<point x="210" y="-144"/>
			<point x="449" y="-144" type="curve" smooth="yes"/>
			<point x="509" y="-144"/>
			<point x="574" y="-132"/>
			<point x="639" y="-104" type="curve"/>
			<point x="604" y="-35" type="line"/>
			<point x="553" y="-57"/>
			<point x="497" y="-69"/>
			<point x="445" y="-69" type="curve" smooth="yes"/>
			<point x="256" y="-69"/>
			<point x="126" y="76"/>
			<point x="126" y="274" type="curve" smooth="yes"/>
			<point x="126" y="479"/>
			<point x="265" y="631"/>
			<point x="466" y="631" type="curve" smooth="yes"/>
			<point x="655" y="631"/>
			<point x="774" y="512"/>
			<point x="774" y="319" type="curve" smooth="yes"/>
			<point x="774" y="227"/>
			<point x="748" y="150"/>
			<point x="689" y="150" type="curve" smooth="yes"/>
			<point x="651" y="150"/>
			<point x="633" y="170"/>
			<point x="633" y="218" type="curve" smooth="yes"/>
			<point x="633" y="478" type="line"/>
			<point x="555" y="478" type="line"/>
			<point x="555" y="406" type="line"/>
			<point x="569" y="412" type="line"/>
			<point x="551" y="468"/>
			<point x="487" y="487"/>
			<point x="446" y="487" type="curve" smooth="yes"/>
			<point x="337" y="487"/>
			<point x="265" y="396"/>
			<point x="265" y="281" type="curve" smooth="yes"/>
			<point x="265" y="161"/>
			<point x="333" y="75"/>
			<point x="446" y="75" type="curve" smooth="yes"/>
			<point x="516" y="75"/>
			<point x="578" y="133"/>
			<point x="581" y="171" type="curve"/>
			<point x="571" y="172" type="line"/>
			<point x="579" y="126"/>
			<point x="613" y="84"/>
			<point x="689" y="84" type="curve" smooth="yes"/>
			<point x="797" y="84"/>
			<point x="854" y="190"/>
			<point x="854" y="318" type="curve" smooth="yes"/>
			<point x="854" y="548"/>
			<point x="694" y="706"/>
		</contour>
		<contour>
			<point x="452" y="141" type="curve" smooth="yes"/>
			<point x="380" y="141"/>
			<point x="343" y="204"/>
			<point x="343" y="281" type="curve" smooth="yes"/>
			<point x="343" y="359"/>
			<point x="391" y="421"/>
			<point x="452" y="421" type="curve" smooth="yes"/>
			<point x="518" y="421"/>
			<point x="555" y="377"/>
			<point x="555" y="281" type="curve" smooth="yes"/>
			<point x="555" y="193"/>
			<point x="512" y="141"/>
		</contour>
	</outline>
</glyph>
<glyph name="A" format="2">
	<advance width="648"/>
	<unicode hex="0041"/>
	<guideline x="0" y="0" angle="248.6566"/>
	<anchor x="324" y="0" name="bottom"/>
	<anchor x="614" y="0" name="ogonek"/>
	<anchor x="324" y="706" name="top"/>
	<outline>
		<contour>
			<point x="99" y="142" type="line"/>
			<point x="547" y="142" type="line"/>
			<point x="518" y="222" type="line"/>
			<point x="128" y="222" type="line"/>
		</contour>
		<contour>
			<point x="-3" y="0" type="line"/>
			<point x="94" y="0" type="line"/>
			<point x="322" y="621" type="line"/>
			<point x="324" y="621" type="line"/>
			<point x="553" y="0" type="line"/>
			<point x="652" y="0" type="line"/>
			<point x="378" y="706" type="line"/>
			<point x="271" y="706" type="line"/>
		</contour>
	</outline>
</glyph>
<glyph name="B" format="2">
	<advance width="678"/>
	<unicode hex="0042"/>
	<outline>
		<contour>
			<point x="78" y="0" type="line"/>
			<point x="412" y="0" type="line" smooth="yes"/>
			<point x="540" y="0"/>
			<point x="633" y="79"/>
			<point x="633" y="197" type="curve" smooth="yes"/>
			<point x="633" y="295"/>
			<point x="584" y="354"/>
			<point x="498" y="373" type="curve"/>
			<point x="498" y="375" type="line"/>
			<point x="566" y="403"/>
			<point x="603" y="461"/>
			<point x="603" y="524" type="curve" smooth="yes"/>
			<point x="603" y="643"/>
			<point x="532" y="706"/>
			<point x="392" y="706" type="curve" smooth="yes"/>
			<point x="78" y="706" type="line"/>
		</contour>
		<contour>
			<point x="173" y="80" type="line"/>
			<point x="173" y="626" type="line"/>
			<point x="381" y="626" type="line" smooth="yes"/>
			<point x="456" y="626"/>
			<point x="508" y="596"/>
			<point x="508" y="516" type="curve" smooth="yes"/>
			<point x="508" y="444"/>
			<point x="460" y="403"/>
			<point x="377" y="403" type="curve" smooth="yes"/>
			<point x="154" y="403" type="line"/>
			<point x="154" y="323" type="line"/>
			<point x="399" y="323" type="line" smooth="yes"/>
			<point x="482" y="323"/>
			<point x="538" y="276"/>
			<point x="538" y="205" type="curve" smooth="yes"/>
			<point x="538" y="127"/>
			<point x="483" y="80"/>
			<point x="402" y="80" type="curve" smooth="yes"/>
		</contour>
	</outline>
</glyph>
<glyph name="C" format="2">
	<advance width="694"/>
	<unicode hex="0043"/>
	<anchor x="371" y="0" name="bottom"/>
	<anchor x="380" y="706" name="top"/>
	<outline>
		<contour>
			<point x="371" y="-16" type="curve" smooth="yes"/>
			<point x="469" y="-16"/>
			<point x="587" y="23"/>
			<point x="651" y="152" type="curve"/>
			<point x="565" y="183" type="line"/>
			<point x="527" y="97"/>
			<point x="447" y="63"/>
			<point x="371" y="63" type="curve" smooth="yes"/>
			<point x="226" y="63"/>
			<point x="138" y="184"/>
			<point x="138" y="354" type="curve" smooth="yes"/>
			<point x="138" y="518"/>
			<point x="226" y="642"/>
			<point x="380" y="642" type="curve" smooth="yes"/>
			<point x="457" y="642"/>
			<point x="537" y="609"/>
			<point x="574" y="523" type="curve"/>
			<point x="659" y="555" type="line"/>
			<point x="596" y="683"/>
			<point x="479" y="722"/>
			<point x="380" y="722" type="curve" smooth="yes"/>
			<point x="173" y="722"/>
			<point x="43" y="558"/>
			<point x="43" y="354" type="curve" smooth="yes"/>
			<point x="43" y="141"/>
			<point x="179" y="-16"/>
		</contour>
	</outline>
</glyph>
<glyph name="D" format="2">
	<advance width="699"/>
	<unicode hex="0044"/>
	<anchor x="350" y="0" name="bottom"/>
	<anchor x="350" y="356" name="center"/>
	<anchor x="350" y="712" name="top"/>
	<outline>
		<contour>
			<point x="78" y="0" type="line"/>
			<point x="320" y="0" type="line" smooth="yes"/>
			<point x="546" y="0"/>
			<point x="661" y="147"/>
			<point x="661" y="352" type="curve" smooth="yes"/>
			<point x="661" y="558"/>
			<point x="543" y="706"/>
			<point x="320" y="706" type="curve" smooth="yes"/>
			<point x="78" y="706" type="line"/>
		</contour>
		<contour>
			<point x="173" y="44" type="line"/>
			<point x="173" y="662" type="line"/>
			<point x="131" y="626" type="line"/>
			<point x="328" y="626" type="line" smooth="yes"/>
			<point x="492" y="626"/>
			<point x="566" y="507"/>
			<point x="566" y="352" type="curve" smooth="yes"/>
			<point x="566" y="198"/>
			<point x="494" y="80"/>
			<point x="328" y="80" type="curve" smooth="yes"/>
			<point x="131" y="80" type="line"/>
		</contour>
	</outline>
</glyph>
<glyph name="E" format="2">
	<advance width="606"/>
	<unicode hex="0045"/>
	<anchor x="318" y="0" name="bottom"/>
	<anchor x="521" y="0" name="ogonek"/>
	<anchor x="318" y="706" name="top"/>
	<anchor x="20" y="706" name="topleft"/>
	<outline>
		<contour>
			<point x="78" y="0" type="line"/>
			<point x="568" y="0" type="line"/>
			<point x="568" y="80" type="line"/>
			<point x="173" y="80" type="line"/>
			<point x="173" y="626" type="line"/>
			<point x="559" y="626" type="line"/>
			<point x="559" y="706" type="line"/>
			<point x="78" y="706" type="line"/>
		</contour>
		<contour>
			<point x="153" y="323" type="line"/>
			<point x="517" y="323" type="line"/>
			<point x="517" y="403" type="line"/>
			<point x="153" y="403" type="line"/>
		</contour>
	</outline>
</glyph>
<glyph name="F" format="2">
	<advance width="577"/>
	<unicode hex="0046"/>
	<outline>
		<contour>
			<point x="78" y="0" type="line"/>
			<point x="173" y="0" type="line"/>
			<point x="173" y="626" type="line"/>
			<point x="547" y="626" type="line"/>
			<point x="547" y="706" type="line"/>
			<point x="78" y="706" type="line"/>
		</contour>
		<contour>
			<point x="155" y="320" type="line"/>
			<point x="499" y="320" type="line"/>
			<point x="499" y="400" type="line"/>
			<point x="155" y="400" type="line"/>
		</contour>
	</outline>
</glyph>
<glyph name="G" format="2">
	<advance width="747"/>
	<unicode hex="0047"/>
	<guideline x="604" y="512" angle="20.8545"/>
	<anchor x="395" y="0" name="bottom"/>
	<anchor x="392" y="706" name="top"/>
	<outline>
		<contour>
			<point x="395" y="-16" type="curve" smooth="yes"/>
			<point x="515" y="-16"/>
			<point x="615" y="30"/>
			<point x="683" y="97" type="curve"/>
			<point x="683" y="385" type="line"/>
			<point x="387" y="385" type="line"/>
			<point x="387" y="305" type="line"/>
			<point x="637" y="305" type="line"/>
			<point x="597" y="343" type="line"/>
			<point x="597" y="95" type="line"/>
			<point x="626" y="161" type="line"/>
			<point x="579" y="106"/>
			<point x="498" y="64"/>
			<point x="403" y="64" type="curve" smooth="yes"/>
			<point x="234" y="64"/>
			<point x="133" y="185"/>
			<point x="133" y="354" type="curve" smooth="yes"/>
			<point x="133" y="517"/>
			<point x="226" y="642"/>
			<point x="395" y="642" type="curve" smooth="yes"/>
			<point x="487" y="642"/>
			<point x="554" y="608"/>
			<point x="591" y="523" type="curve"/>
			<point x="676" y="555" type="line"/>
			<point x="614" y="683"/>
			<point x="510" y="722"/>
			<point x="392" y="722" type="curve" smooth="yes"/>
			<point x="174" y="722"/>
			<point x="38" y="558"/>
			<point x="38" y="354" type="curve" smooth="yes"/>
			<point x="38" y="141"/>
			<point x="187" y="-16"/>
		</contour>
	</outline>
</glyph>
<glyph name="H" format="2">
	<advance width="716"/>
	<unicode hex="0048"/>
	<anchor x="358" y="0" name="bottom"/>
	<anchor x="358" y="353" name="center"/>
	<anchor x="358" y="706" name="top"/>
	<anchor x="18" y="706" name="topleft"/>
	<outline>
		<contour>
			<point x="543" y="0" type="line"/>
			<point x="638" y="0" type="line"/>
			<point x="638" y="706" type="line"/>
			<point x="543" y="706" type="line"/>
		</contour>
		<contour>
			<point x="78" y="0" type="line"/>
			<point x="173" y="0" type="line"/>
			<point x="173" y="706" type="line"/>
			<point x="78" y="706" type="line"/>
		</contour>
		<contour>
			<point x="156" y="323" type="line"/>
			<point x="559" y="323" type="line"/>
			<point x="559" y="403" type="line"/>
			<point x="156" y="403" type="line"/>
		</contour>
	</outline>
</glyph>
<glyph name="I" format="2">
	<advance width="257"/>
	<unicode hex="0049"/>
	<anchor x="129" y="0" name="bottom"/>
	<anchor x="175" y="0" name="ogonek"/>
	<anchor x="129" y="706" name="top"/>
	<anchor x="20" y="706" name="topleft"/>
	<outline>
		<contour>
			<point x="82" y="0" type="line"/>
			<point x="175" y="0" type="line"/>
			<point x="175" y="706" type="line"/>
			<point x="82" y="706" type="line"/>
		</contour>
	</outline>
</glyph>
<glyph name="J" format="2">
	<advance width="555"/>
	<unicode hex="004A"/>
	<guideline x="124" y="183" angle="14.7436"/>
	<anchor x="296" y="0" name="bottom"/>
	<anchor x="296" y="706" name="top"/>
	<outline>
		<contour>
			<point x="265" y="-12" type="curve" smooth="yes"/>
			<point x="396" y="-12"/>
			<point x="477" y="71"/>
			<point x="477" y="227" type="curve" smooth="yes"/>
			<point x="477" y="706" type="line"/>
			<point x="382" y="706" type="line" name="🧨"/>
			<point x="382" y="228" type="line" smooth="yes"/>
			<point x="382" y="123"/>
			<point x="334" y="68"/>
			<point x="262" y="68" type="curve" smooth="yes"/>
			<point x="193" y="68"/>
			<point x="145" y="108"/>
			<point x="125" y="186" type="curve"/>
			<point x="38" y="160" type="line"/>
			<point x="76" y="27"/>
			<point x="168" y="-12"/>
		</contour>
		<contour>
			<point x="112" y="627" type="line"/>
			<point x="402" y="627" type="line"/>
			<point x="402" y="706" type="line" name="🧨"/>
			<point x="112" y="706" type="line"/>
		</contour>
	</outline>
</glyph>
<glyph name="K" format="2">
	<advance width="675"/>
	<unicode hex="004B"/>
	<guideline x="546" y="0" angle="302.9885"/>
	<anchor x="331" y="0" name="bottom"/>
	<anchor x="331" y="706" name="top"/>
	<outline>
		<contour>
			<point x="160" y="233" type="line"/>
			<point x="651" y="706" type="line"/>
			<point x="530" y="706" type="line"/>
			<point x="160" y="343" type="line"/>
		</contour>
		<contour>
			<point x="78" y="0" type="line"/>
			<point x="173" y="0" type="line"/>
			<point x="173" y="706" type="line"/>
			<point x="78" y="706" type="line"/>
		</contour>
		<contour>
			<point x="554" y="0" type="line" name="🧨"/>
			<point x="665" y="0" type="line"/>
			<point x="665" y="79" type="line"/>
			<point x="554" y="79" type="line"/>
		</contour>
		<contour>
			<point x="537" y="0" type="line"/>
			<point x="655" y="0" type="line" name="🧨"/>
			<point x="362" y="451" type="line"/>
			<point x="292" y="383" type="line"/>
		</contour>
	</outline>
</glyph>
<glyph name="L" format="2">
	<advance width="567"/>
	<unicode hex="004C"/>
	<anchor x="310" y="0" name="bottom"/>
	<anchor x="277" y="353" name="center"/>
	<anchor x="126" y="706" name="top"/>
	<anchor x="334" y="706" name="topright"/>
	<outline>
		<contour>
			<point x="78" y="0" type="line"/>
			<point x="547" y="0" type="line"/>
			<point x="547" y="80" type="line"/>
			<point x="173" y="80" type="line"/>
			<point x="173" y="706" type="line"/>
			<point x="78" y="706" type="line"/>
		</contour>
	</outline>
</glyph>
<glyph name="M" format="2">
	<advance width="868"/>
	<unicode hex="004D"/>
	<outline>
		<contour>
			<point x="80" y="0" type="line"/>
			<point x="170" y="0" type="line"/>
			<point x="170" y="576" type="line"/>
			<point x="172" y="576" type="line"/>
			<point x="396" y="0" type="line"/>
			<point x="472" y="0" type="line"/>
			<point x="696" y="576" type="line"/>
			<point x="698" y="576" type="line"/>
			<point x="698" y="0" type="line"/>
			<point x="788" y="0" type="line"/>
			<point x="788" y="706" type="line"/>
			<point x="663" y="706" type="line"/>
			<point x="435" y="120" type="line"/>
			<point x="433" y="120" type="line"/>
			<point x="205" y="706" type="line"/>
			<point x="80" y="706" type="line"/>
		</contour>
	</outline>
</glyph>
<glyph name="N" format="2">
	<advance width="726"/>
	<unicode hex="004E"/>
	<anchor x="363" y="0" name="bottom"/>
	<anchor x="363" y="706" name="top"/>
	<outline>
		<contour>
			<point x="544" y="0" type="line"/>
			<point x="648" y="0" type="line"/>
			<point x="648" y="706" type="line"/>
			<point x="558" y="706" type="line"/>
			<point x="558" y="122" type="line"/>
			<point x="562" y="124" type="line"/>
			<point x="183" y="706" type="line"/>
			<point x="78" y="706" type="line"/>
			<point x="78" y="0" type="line"/>
			<point x="168" y="0" type="line"/>
			<point x="168" y="586" type="line"/>
			<point x="163" y="583" type="line"/>
		</contour>
	</outline>
</glyph>
<glyph name="O" format="2">
	<advance width="750"/>
	<unicode hex="004F"/>
	<anchor x="375" y="0" name="bottom"/>
	<anchor x="375" y="353" name="center"/>
	<anchor x="675" y="10" name="ogonek"/>
	<anchor x="375" y="706" name="top"/>
	<anchor x="20" y="706" name="topleft"/>
	<anchor x="730" y="706" name="topright"/>
	<outline>
		<contour>
			<point x="375" y="-16" type="curve"/>
			<point x="575" y="-16"/>
			<point x="712" y="149"/>
			<point x="712" y="354" type="curve" smooth="yes"/>
			<point x="712" y="567"/>
			<point x="575" y="722"/>
			<point x="375" y="722" type="curve" smooth="yes"/>
			<point x="177" y="722"/>
			<point x="38" y="567"/>
			<point x="38" y="354" type="curve" smooth="yes"/>
			<point x="38" y="149"/>
			<point x="177" y="-16"/>
		</contour>
		<contour>
			<point x="375" y="64" type="curve"/>
			<point x="230" y="64"/>
			<point x="133" y="195"/>
			<point x="133" y="354" type="curve" smooth="yes"/>
			<point x="133" y="521"/>
			<point x="230" y="642"/>
			<point x="375" y="642" type="curve" smooth="yes"/>
			<point x="521" y="642"/>
			<point x="617" y="521"/>
			<point x="617" y="354" type="curve" smooth="yes"/>
			<point x="617" y="195"/>
			<point x="521" y="64"/>
		</contour>
	</outline>
</glyph>
<glyph name="P" format="2">
	<advance width="642"/>
	<unicode hex="0050"/>
	<anchor x="289" y="0" name="bottom"/>
	<anchor x="289" y="680" name="top"/>
	<outline>
		<contour>
			<point x="78" y="0" type="line"/>
			<point x="173" y="0" type="line"/>
			<point x="173" y="626" type="line"/>
			<point x="348" y="626" type="line" smooth="yes"/>
			<point x="472" y="626"/>
			<point x="509" y="563"/>
			<point x="509" y="492" type="curve" smooth="yes"/>
			<point x="509" y="426"/>
			<point x="482" y="357"/>
			<point x="345" y="357" type="curve" smooth="yes"/>
			<point x="154" y="357" type="line"/>
			<point x="154" y="277" type="line"/>
			<point x="371" y="277" type="line" smooth="yes"/>
			<point x="545" y="277"/>
			<point x="604" y="385"/>
			<point x="604" y="491" type="curve" smooth="yes"/>
			<point x="604" y="595"/>
			<point x="542" y="706"/>
			<point x="374" y="706" type="curve" smooth="yes"/>
			<point x="78" y="706" type="line"/>
		</contour>
	</outline>
</glyph>
<glyph name="Q" format="2">
	<advance width="750"/>
	<unicode hex="0051"/>
	<outline>
		<contour>
			<point x="656" y="-59" type="line"/>
			<point x="705" y="-1" type="line"/>
			<point x="450" y="214" type="line"/>
			<point x="396" y="158" type="line"/>
		</contour>
		<component base="O"/>
	</outline>
</glyph>
<glyph name="R" format="2">
	<advance width="679"/>
	<unicode hex="0052"/>
	<guideline x="436" y="143" angle="302.9885"/>
	<anchor x="340" y="0" name="bottom"/>
	<anchor x="340" y="706" name="top"/>
	<outline>
		<contour>
			<point x="78" y="0" type="line"/>
			<point x="173" y="0" type="line"/>
			<point x="173" y="626" type="line"/>
			<point x="389" y="626" type="line" smooth="yes"/>
			<point x="472" y="626"/>
			<point x="529" y="568"/>
			<point x="529" y="492" type="curve" smooth="yes"/>
			<point x="529" y="413"/>
			<point x="475" y="362"/>
			<point x="386" y="362" type="curve" smooth="yes"/>
			<point x="154" y="362" type="line"/>
			<point x="154" y="282" type="line"/>
			<point x="343" y="282" type="line"/>
			<point x="527" y="0" type="line"/>
			<point x="637" y="0" type="line" name="🧨"/>
			<point x="637" y="3" type="line"/>
			<point x="427" y="319" type="line"/>
			<point x="416" y="284" type="line"/>
			<point x="544" y="299"/>
			<point x="624" y="381"/>
			<point x="624" y="493" type="curve" smooth="yes"/>
			<point x="624" y="615"/>
			<point x="525" y="706"/>
			<point x="392" y="706" type="curve" smooth="yes"/>
			<point x="78" y="706" type="line"/>
		</contour>
		<contour>
			<point x="544" y="0" type="line" name="🧨"/>
			<point x="646" y="0" type="line"/>
			<point x="646" y="79" type="line"/>
			<point x="544" y="79" type="line"/>
		</contour>
	</outline>
</glyph>
<glyph name="S" format="2">
	<advance width="644"/>
	<unicode hex="0053"/>
	<guideline x="529" y="539" angle="20.6299"/>
	<guideline x="-7" y="168" angle="19.8225"/>
	<anchor x="322" y="0" name="bottom"/>
	<anchor x="322" y="706" name="top"/>
	<outline>
		<contour>
			<point x="324" y="-16" type="curve" smooth="yes"/>
			<point x="479" y="-16"/>
			<point x="603" y="52"/>
			<point x="603" y="193" type="curve" smooth="yes"/>
			<point x="603" y="350"/>
			<point x="464" y="389"/>
			<point x="340" y="411" type="curve" smooth="yes"/>
			<point x="243" y="428"/>
			<point x="156" y="449"/>
			<point x="156" y="530" type="curve" smooth="yes"/>
			<point x="156" y="611"/>
			<point x="238" y="642"/>
			<point x="325" y="642" type="curve" smooth="yes"/>
			<point x="404" y="642"/>
			<point x="471" y="617"/>
			<point x="493" y="523" type="curve"/>
			<point x="578" y="555" type="line"/>
			<point x="543" y="674"/>
			<point x="448" y="722"/>
			<point x="329" y="722" type="curve" smooth="yes"/>
			<point x="187" y="722"/>
			<point x="65" y="656"/>
			<point x="65" y="523" type="curve" smooth="yes"/>
			<point x="65" y="385"/>
			<point x="193" y="352"/>
			<point x="310" y="328" type="curve" smooth="yes"/>
			<point x="415" y="306"/>
			<point x="513" y="279"/>
			<point x="513" y="188" type="curve" smooth="yes"/>
			<point x="513" y="100"/>
			<point x="425" y="65"/>
			<point x="327" y="65" type="curve" smooth="yes"/>
			<point x="238" y="65"/>
			<point x="155" y="94"/>
			<point x="133" y="183" type="curve"/>
			<point x="47" y="152" type="line"/>
			<point x="81" y="34"/>
			<point x="192" y="-16"/>
		</contour>
	</outline>
</glyph>
<glyph name="T" format="2">
	<advance width="569"/>
	<unicode hex="0054"/>
	<anchor x="285" y="0" name="bottom"/>
	<anchor x="285" y="353" name="center"/>
	<anchor x="285" y="706" name="top"/>
	<outline>
		<contour>
			<point x="237" y="0" type="line"/>
			<point x="332" y="0" type="line"/>
			<point x="332" y="637" type="line"/>
			<point x="237" y="637" type="line"/>
		</contour>
		<contour>
			<point x="3" y="626" type="line"/>
			<point x="566" y="626" type="line"/>
			<point x="566" y="706" type="line"/>
			<point x="3" y="706" type="line"/>
		</contour>
	</outline>
</glyph>
<glyph name="U" format="2">
	<advance width="702"/>
	<unicode hex="0055"/>
	<anchor x="351" y="0" name="bottom"/>
	<anchor x="632" y="10" name="ogonek"/>
	<anchor x="351" y="706" name="top"/>
	<anchor x="682" y="706" name="topright"/>
	<outline>
		<contour>
			<point x="352" y="-16" type="curve" smooth="yes"/>
			<point x="507" y="-16"/>
			<point x="628" y="71"/>
			<point x="628" y="245" type="curve" smooth="yes"/>
			<point x="628" y="706" type="line"/>
			<point x="533" y="706" type="line"/>
			<point x="533" y="249" type="line" smooth="yes"/>
			<point x="533" y="120"/>
			<point x="460" y="64"/>
			<point x="352" y="64" type="curve" smooth="yes"/>
			<point x="243" y="64"/>
			<point x="169" y="120"/>
			<point x="169" y="249" type="curve" smooth="yes"/>
			<point x="169" y="706" type="line"/>
			<point x="74" y="706" type="line"/>
			<point x="74" y="245" type="line" smooth="yes"/>
			<point x="74" y="71"/>
			<point x="195" y="-16"/>
		</contour>
	</outline>
</glyph>
<glyph name="V" format="2">
	<advance width="606"/>
	<unicode hex="0056"/>
	<guideline x="105" y="680" angle="290.1042"/>
	<guideline x="134" y="337" angle="290.1042"/>
	<guideline x="499" y="680" angle="69.8218"/>
	<guideline x="473" y="337" angle="69.8218"/>
	<anchor x="303" y="0" name="bottom"/>
	<anchor x="303" y="706" name="top"/>
	<outline>
		<contour>
			<point x="249" y="0" type="line"/>
			<point x="358" y="0" type="line"/>
			<point x="607" y="706" type="line"/>
			<point x="506" y="706" type="line"/>
			<point x="299" y="76" type="line"/>
			<point x="311" y="76" type="line"/>
			<point x="102" y="706" type="line"/>
			<point x="-1" y="706" type="line"/>
		</contour>
	</outline>
</glyph>
<glyph name="W" format="2">
	<advance width="914"/>
	<unicode hex="0057"/>
	<anchor x="457" y="0" name="bottom"/>
	<anchor x="457" y="706" name="top"/>
	<outline>
		<contour>
			<point x="187" y="0" type="line"/>
			<point x="285" y="0" type="line"/>
			<point x="452" y="586" type="line"/>
			<point x="454" y="586" type="line"/>
			<point x="618" y="0" type="line"/>
			<point x="718" y="0" type="line"/>
			<point x="902" y="706" type="line"/>
			<point x="808" y="706" type="line"/>
			<point x="667" y="120" type="line"/>
			<point x="665" y="120" type="line"/>
			<point x="504" y="706" type="line"/>
			<point x="406" y="706" type="line"/>
			<point x="244" y="120" type="line"/>
			<point x="242" y="120" type="line"/>
			<point x="109" y="706" type="line"/>
			<point x="12" y="706" type="line"/>
		</contour>
	</outline>
</glyph>
<glyph name="X" format="2">
	<advance width="611"/>
	<unicode hex="0058"/>
	<outline>
		<contour>
			<point x="497" y="0" type="line"/>
			<point x="612" y="0" type="line"/>
			<point x="353" y="380" type="line"/>
			<point x="315" y="422" type="line"/>
			<point x="134" y="706" type="line"/>
			<point x="20" y="706" type="line"/>
			<point x="258" y="353" type="line"/>
			<point x="295" y="311" type="line"/>
		</contour>
		<contour>
			<point x="-1" y="0" type="line"/>
			<point x="106" y="0" type="line"/>
			<point x="315" y="311" type="line"/>
			<point x="257" y="380" type="line"/>
		</contour>
		<contour>
			<point x="353" y="353" type="line"/>
			<point x="591" y="706" type="line"/>
			<point x="485" y="706" type="line"/>
			<point x="297" y="422" type="line"/>
		</contour>
	</outline>
</glyph>
<glyph name="Y" format="2">
	<advance width="628"/>
	<unicode hex="0059"/>
	<anchor x="314" y="0" name="bottom"/>
	<anchor x="314" y="706" name="top"/>
	<anchor x="20" y="706" name="topleft"/>
	<outline>
		<contour>
			<point x="267" y="0" type="line"/>
			<point x="362" y="0" type="line"/>
			<point x="362" y="312" type="line"/>
			<point x="625" y="706" type="line"/>
			<point x="518" y="706" type="line"/>
			<point x="296" y="363" type="line"/>
			<point x="339" y="363" type="line"/>
			<point x="117" y="706" type="line"/>
			<point x="3" y="706" type="line"/>
			<point x="267" y="312" type="line"/>
		</contour>
	</outline>
</glyph>
<glyph name="Z" format="2">
	<advance width="596"/>
	<unicode hex="005A"/>
	<anchor x="298" y="0" name="bottom"/>
	<anchor x="298" y="353" name="center"/>
	<anchor x="298" y="706" name="top"/>
	<outline>
		<contour>
			<point x="22" y="0" type="line"/>
			<point x="575" y="0" type="line"/>
			<point x="575" y="80" type="line"/>
			<point x="90" y="80" type="line"/>
			<point x="110" y="39" type="line"/>
			<point x="563" y="636" type="line"/>
			<point x="563" y="706" type="line"/>
			<point x="52" y="706" type="line"/>
			<point x="52" y="626" type="line"/>
			<point x="500" y="626" type="line"/>
			<point x="477" y="669" type="line"/>
			<point x="22" y="70" type="line"/>
		</contour>
	</outline>
</glyph>
<glyph name="bracketleft" format="2">
	<advance width="269"/>
	<unicode hex="005B"/>
	<outline>
		<contour>
			<point x="72" y="-198" type="line"/>
			<point x="259" y="-198" type="line"/>
			<point x="259" y="-130" type="line"/>
			<point x="152" y="-130" type="line"/>
			<point x="152" y="654" type="line"/>
			<point x="259" y="654" type="line"/>
			<point x="259" y="722" type="line"/>
			<point x="72" y="722" type="line"/>
		</contour>
	</outline>
</glyph>
<glyph name="backslash" format="2">
	<advance width="418"/>
	<unicode hex="005C"/>
	<outline>
		<contour>
			<point x="301" y="-17" type="line"/>
			<point x="383" y="-17" type="line"/>
			<point x="107" y="722" type="line"/>
			<point x="25" y="722" type="line"/>
		</contour>
	</outline>
</glyph>
<glyph name="a" format="2">
	<advance width="546"/>
	<unicode hex="0061"/>
	<guideline x="118" y="359" angle="341.9958"/>
	<guideline x="117" y="351" angle="341.9958"/>
	<anchor x="276" y="0" name="bottom"/>
	<anchor x="481" y="0" name="ogonek"/>
	<anchor x="276" y="510" name="top"/>
	<outline>
		<contour>
			<point x="206" y="-8" type="curve" smooth="yes"/>
			<point x="313" y="-8"/>
			<point x="387" y="58"/>
			<point x="409" y="155" type="curve"/>
			<point x="388" y="117" type="line"/>
			<point x="388" y="0" type="line"/>
			<point x="473" y="0" type="line" name="🧨"/>
			<point x="473" y="328" type="line" smooth="yes"/>
			<point x="473" y="464"/>
			<point x="389" y="522"/>
			<point x="273" y="522" type="curve" smooth="yes"/>
			<point x="162" y="522"/>
			<point x="89" y="463"/>
			<point x="68" y="378" type="curve"/>
			<point x="148" y="351" type="line"/>
			<point x="165" y="405"/>
			<point x="192" y="447"/>
			<point x="267" y="447" type="curve" smooth="yes"/>
			<point x="334" y="447"/>
			<point x="388" y="418"/>
			<point x="388" y="337" type="curve" smooth="yes"/>
			<point x="388" y="273" type="line"/>
			<point x="396" y="171"/>
			<point x="332" y="67"/>
			<point x="224" y="67" type="curve" smooth="yes"/>
			<point x="172" y="67"/>
			<point x="134" y="94"/>
			<point x="134" y="140" type="curve" smooth="yes"/>
			<point x="134" y="228"/>
			<point x="244" y="239"/>
			<point x="401" y="242" type="curve"/>
			<point x="401" y="312" type="line"/>
			<point x="178" y="307"/>
			<point x="47" y="271"/>
			<point x="47" y="140" type="curve" smooth="yes"/>
			<point x="47" y="47"/>
			<point x="113" y="-8"/>
		</contour>
		<contour>
			<point x="391" y="0" type="line" name="🧨"/>
			<point x="518" y="0" type="line"/>
			<point x="518" y="75" type="line"/>
			<point x="391" y="75" type="line"/>
		</contour>
	</outline>
</glyph>
<glyph name="c" format="2">
	<advance width="507"/>
	<unicode hex="0063"/>
	<guideline x="486" y="136" angle="161.8008"/>
	<guideline x="429" y="352" angle="17.9691"/>
	<guideline x="433" y="137" angle="161.8008"/>
	<anchor x="267" y="0" name="bottom"/>
	<anchor x="270" y="510" name="top"/>
	<outline>
		<contour>
			<point x="267" y="-12" type="curve" smooth="yes"/>
			<point x="391" y="-12"/>
			<point x="453" y="48"/>
			<point x="486" y="136" type="curve"/>
			<point x="404" y="165" type="line"/>
			<point x="383" y="101"/>
			<point x="348" y="63"/>
			<point x="275" y="63" type="curve" smooth="yes"/>
			<point x="189" y="63"/>
			<point x="126" y="135"/>
			<point x="126" y="254" type="curve" smooth="yes"/>
			<point x="126" y="368"/>
			<point x="186" y="447"/>
			<point x="266" y="447" type="curve" smooth="yes"/>
			<point x="330" y="447"/>
			<point x="376" y="421"/>
			<point x="404" y="338" type="curve"/>
			<point x="483" y="364" type="line"/>
			<point x="456" y="471"/>
			<point x="378" y="522"/>
			<point x="270" y="522" type="curve" smooth="yes"/>
			<point x="137" y="522"/>
			<point x="36" y="424"/>
			<point x="36" y="255" type="curve" smooth="yes"/>
			<point x="36" y="70"/>
			<point x="156" y="-12"/>
		</contour>
	</outline>
</glyph>
<glyph name="d" format="2">
	<advance width="573"/>
	<unicode hex="0064"/>
	<anchor x="287" y="0" name="bottom"/>
	<anchor x="287" y="255" name="center"/>
	<anchor x="287" y="706" name="top"/>
	<anchor x="553" y="510" name="topright"/>
	<outline>
		<contour>
			<point x="267" y="-12" type="curve" smooth="yes"/>
			<point x="346" y="-12"/>
			<point x="416" y="37"/>
			<point x="442" y="116" type="curve"/>
			<point x="428" y="135" type="line"/>
			<point x="425" y="92"/>
			<point x="424" y="31"/>
			<point x="424" y="0" type="curve"/>
			<point x="509" y="0" type="line"/>
			<point x="509" y="706" type="line"/>
			<point x="424" y="706" type="line"/>
			<point x="424" y="494" type="line" smooth="yes"/>
			<point x="424" y="458"/>
			<point x="426" y="421"/>
			<point x="429" y="386" type="curve"/>
			<point x="445" y="389" type="line"/>
			<point x="424" y="471"/>
			<point x="349" y="522"/>
			<point x="268" y="522" type="curve" smooth="yes"/>
			<point x="135" y="522"/>
			<point x="36" y="415"/>
			<point x="36" y="256" type="curve" smooth="yes"/>
			<point x="36" y="97"/>
			<point x="135" y="-12"/>
		</contour>
		<contour>
			<point x="276" y="63" type="curve" smooth="yes"/>
			<point x="187" y="63"/>
			<point x="126" y="141"/>
			<point x="126" y="258" type="curve" smooth="yes"/>
			<point x="126" y="370"/>
			<point x="188" y="447"/>
			<point x="276" y="447" type="curve" smooth="yes"/>
			<point x="362" y="447"/>
			<point x="425" y="371"/>
			<point x="425" y="257" type="curve" smooth="yes"/>
			<point x="425" y="141"/>
			<point x="362" y="63"/>
		</contour>
	</outline>
</glyph>
<glyph name="e" format="2">
	<advance width="555"/>
	<unicode hex="0065"/>
	<guideline x="453" y="140" angle="161.811"/>
	<anchor x="278" y="0" name="bottom"/>
	<anchor x="500" y="0" name="ogonek"/>
	<anchor x="278" y="510" name="top"/>
	<outline>
		<contour>
			<point x="286" y="-12" type="curve" smooth="yes"/>
			<point x="406" y="-12"/>
			<point x="465" y="48"/>
			<point x="498" y="136" type="curve"/>
			<point x="416" y="165" type="line"/>
			<point x="395" y="101"/>
			<point x="363" y="63"/>
			<point x="288" y="63" type="curve" smooth="yes"/>
			<point x="190" y="63"/>
			<point x="120" y="120"/>
			<point x="120" y="255" type="curve" smooth="yes"/>
			<point x="120" y="374"/>
			<point x="186" y="447"/>
			<point x="272" y="447" type="curve" smooth="yes"/>
			<point x="358" y="447"/>
			<point x="414" y="384"/>
			<point x="421" y="274" type="curve"/>
			<point x="452" y="303" type="line"/>
			<point x="108" y="303" type="line"/>
			<point x="108" y="231" type="line"/>
			<point x="506" y="231" type="line"/>
			<point x="511" y="402"/>
			<point x="423" y="522"/>
			<point x="272" y="522" type="curve" smooth="yes"/>
			<point x="131" y="522"/>
			<point x="36" y="402"/>
			<point x="36" y="257" type="curve" smooth="yes"/>
			<point x="36" y="97"/>
			<point x="121" y="-12"/>
		</contour>
	</outline>
</glyph>
<glyph name="f" format="2">
	<advance width="321"/>
	<unicode hex="0066"/>
	<note>
		blue must check
	</note>
	<outline>
		<contour>
			<point x="116" y="0" type="line"/>
			<point x="201" y="0" type="line"/>
			<point x="201" y="576" type="line" smooth="yes"/>
			<point x="201" y="623"/>
			<point x="224" y="637"/>
			<point x="255" y="637" type="curve" smooth="yes"/>
			<point x="274" y="637"/>
			<point x="290" y="632"/>
			<point x="311" y="621" type="curve"/>
			<point x="323" y="694" type="line"/>
			<point x="302" y="706"/>
			<point x="271" y="712"/>
			<point x="247" y="712" type="curve" smooth="yes"/>
			<point x="159" y="712"/>
			<point x="116" y="648"/>
			<point x="116" y="581" type="curve" smooth="yes"/>
		</contour>
		<contour>
			<point x="25" y="435" type="line"/>
			<point x="301" y="435" type="line"/>
			<point x="301" y="510" type="line"/>
			<point x="25" y="510" type="line"/>
		</contour>
	</outline>
</glyph>
<glyph name="g" format="2">
	<advance width="573"/>
	<unicode hex="0067"/>
	<guideline x="141" y="-56" angle="194.1985"/>
	<anchor x="287" y="-204" name="bottom"/>
	<anchor x="287" y="510" name="top"/>
	<outline>
		<contour>
			<point x="281" y="-210" type="curve" smooth="yes"/>
			<point x="421" y="-210"/>
			<point x="509" y="-120"/>
			<point x="509" y="35" type="curve" smooth="yes"/>
			<point x="509" y="510" type="line"/>
			<point x="424" y="510" type="line"/>
			<point x="424" y="378" type="line"/>
			<point x="445" y="389" type="line"/>
			<point x="424" y="472"/>
			<point x="349" y="522"/>
			<point x="268" y="522" type="curve" smooth="yes"/>
			<point x="135" y="522"/>
			<point x="36" y="417"/>
			<point x="36" y="259" type="curve" smooth="yes"/>
			<point x="36" y="105"/>
			<point x="135" y="0"/>
			<point x="267" y="0" type="curve" smooth="yes"/>
			<point x="346" y="0"/>
			<point x="416" y="44"/>
			<point x="442" y="116" type="curve"/>
			<point x="428" y="135" type="line"/>
			<point x="425" y="99"/>
			<point x="424" y="59"/>
			<point x="424" y="33" type="curve" smooth="yes"/>
			<point x="424" y="-75"/>
			<point x="368" y="-135"/>
			<point x="275" y="-135" type="curve" smooth="yes"/>
			<point x="210" y="-135"/>
			<point x="159" y="-98"/>
			<point x="141" y="-35" type="curve"/>
			<point x="59" y="-58" type="line"/>
			<point x="84" y="-153"/>
			<point x="159" y="-210"/>
		</contour>
		<contour>
			<point x="276" y="75" type="curve" smooth="yes"/>
			<point x="187" y="75"/>
			<point x="126" y="149"/>
			<point x="126" y="261" type="curve" smooth="yes"/>
			<point x="126" y="371"/>
			<point x="188" y="447"/>
			<point x="276" y="447" type="curve" smooth="yes"/>
			<point x="362" y="447"/>
			<point x="425" y="371"/>
			<point x="425" y="257" type="curve" smooth="yes"/>
			<point x="425" y="148"/>
			<point x="362" y="75"/>
		</contour>
	</outline>
</glyph>
<glyph name="h" format="2">
	<advance width="549"/>
	<unicode hex="0068"/>
	<anchor x="275" y="0" name="bottom"/>
	<anchor x="275" y="353" name="center"/>
	<anchor x="107" y="706" name="top"/>
	<outline>
		<contour>
			<point x="64" y="0" type="line"/>
			<point x="149" y="0" type="line"/>
			<point x="149" y="268" type="line" smooth="yes"/>
			<point x="149" y="376"/>
			<point x="205" y="447"/>
			<point x="292" y="447" type="curve" smooth="yes"/>
			<point x="363" y="447"/>
			<point x="401" y="402"/>
			<point x="401" y="313" type="curve" smooth="yes"/>
			<point x="401" y="0" type="line"/>
			<point x="486" y="0" type="line"/>
			<point x="486" y="314" type="line" smooth="yes"/>
			<point x="486" y="449"/>
			<point x="422" y="522"/>
			<point x="304" y="522" type="curve" smooth="yes"/>
			<point x="223" y="522"/>
			<point x="160" y="474"/>
			<point x="133" y="403" type="curve"/>
			<point x="144" y="386" type="line"/>
			<point x="147" y="421"/>
			<point x="149" y="458"/>
			<point x="149" y="494" type="curve" smooth="yes"/>
			<point x="149" y="706" type="line"/>
			<point x="64" y="706" type="line"/>
		</contour>
	</outline>
</glyph>
<glyph name="i" format="2">
	<advance width="221"/>
	<unicode hex="0069"/>
	<anchor x="110" y="0" name="bottom"/>
	<outline>
		<contour>
			<point x="68" y="0" type="line"/>
			<point x="153" y="0" type="line"/>
			<point x="153" y="510" type="line"/>
			<point x="68" y="510" type="line"/>
		</contour>
		<contour>
			<point x="68" y="606" type="line"/>
			<point x="153" y="606" type="line"/>
			<point x="153" y="706" type="line"/>
			<point x="68" y="706" type="line"/>
		</contour>
	</outline>
</glyph>
<glyph name="j" format="2">
	<advance width="240"/>
	<unicode hex="006A"/>
	<outline>
		<contour>
			<point x="17" y="-210" type="curve"/>
			<point x="112" y="-210"/>
			<point x="165" y="-142"/>
			<point x="165" y="-12" type="curve" smooth="yes"/>
			<point x="165" y="510" type="line"/>
			<point x="80" y="510" type="line"/>
			<point x="80" y="-6" type="line" smooth="yes"/>
			<point x="80" y="-89"/>
			<point x="69" y="-137"/>
			<point x="19" y="-137" type="curve" smooth="yes"/>
			<point x="-4" y="-137"/>
			<point x="-23" y="-135"/>
			<point x="-48" y="-124" type="curve"/>
			<point x="-60" y="-199" type="line"/>
			<point x="-35" y="-207"/>
			<point x="-12" y="-210"/>
		</contour>
		<contour>
			<point x="80" y="606" type="line"/>
			<point x="165" y="606" type="line"/>
			<point x="165" y="706" type="line"/>
			<point x="80" y="706" type="line"/>
		</contour>
	</outline>
</glyph>
<glyph name="k" format="2">
	<advance width="543"/>
	<unicode hex="006B"/>
	<anchor x="267" y="0" name="bottom"/>
	<anchor x="267" y="706" name="top"/>
	<outline>
		<contour>
			<point x="137" y="185" type="line"/>
			<point x="491" y="510" type="line"/>
			<point x="377" y="510" type="line"/>
			<point x="137" y="280" type="line"/>
		</contour>
		<contour>
			<point x="64" y="0" type="line"/>
			<point x="149" y="0" type="line"/>
			<point x="149" y="706" type="line"/>
			<point x="64" y="706" type="line"/>
		</contour>
		<contour>
			<point x="406" y="0" type="line"/>
			<point x="514" y="0" type="line" name="🧨"/>
			<point x="285" y="342" type="line"/>
			<point x="220" y="283" type="line"/>
		</contour>
		<contour>
			<point x="406" y="0" type="line" name="🔥"/>
			<point x="536" y="0" type="line"/>
			<point x="536" y="75" type="line"/>
			<point x="406" y="75" type="line"/>
		</contour>
	</outline>
</glyph>
<glyph name="l" format="2">
	<advance width="269"/>
	<unicode hex="006C"/>
	<anchor x="112" y="0" name="bottom"/>
	<anchor x="112" y="353" name="center"/>
	<anchor x="112" y="706" name="top"/>
	<anchor x="228" y="706" name="topright"/>
	<outline>
		<contour>
			<point x="69" y="0" type="line"/>
			<point x="154" y="0" type="line" name="🧨"/>
			<point x="154" y="706" type="line"/>
			<point x="69" y="706" type="line"/>
		</contour>
		<contour>
			<point x="113" y="0" type="line" name="🧨"/>
			<point x="244" y="0" type="line"/>
			<point x="244" y="75" type="line"/>
			<point x="113" y="75" type="line"/>
		</contour>
	</outline>
</glyph>
<glyph name="m" format="2">
	<advance width="850"/>
	<unicode hex="006D"/>
	<anchor x="425" y="0" name="bottom"/>
	<anchor x="425" y="510" name="top"/>
	<outline>
		<contour>
			<point x="64" y="0" type="line"/>
			<point x="149" y="0" type="line"/>
			<point x="149" y="248" type="line" smooth="yes"/>
			<point x="149" y="356"/>
			<point x="191" y="447"/>
			<point x="286" y="447" type="curve" smooth="yes"/>
			<point x="347" y="447"/>
			<point x="383" y="390"/>
			<point x="383" y="325" type="curve" smooth="yes"/>
			<point x="383" y="0" type="line"/>
			<point x="468" y="0" type="line"/>
			<point x="468" y="248" type="line" smooth="yes"/>
			<point x="468" y="356"/>
			<point x="509" y="447"/>
			<point x="604" y="447" type="curve" smooth="yes"/>
			<point x="661" y="447"/>
			<point x="702" y="402"/>
			<point x="702" y="325" type="curve" smooth="yes"/>
			<point x="702" y="0" type="line"/>
			<point x="787" y="0" type="line"/>
			<point x="787" y="323" type="line" smooth="yes"/>
			<point x="787" y="446"/>
			<point x="727" y="522"/>
			<point x="616" y="522" type="curve" smooth="yes"/>
			<point x="528" y="522"/>
			<point x="470" y="474"/>
			<point x="438" y="402" type="curve"/>
			<point x="458" y="400" type="line"/>
			<point x="437" y="475"/>
			<point x="383" y="522"/>
			<point x="302" y="522" type="curve" smooth="yes"/>
			<point x="222" y="522"/>
			<point x="160" y="475"/>
			<point x="133" y="398" type="curve"/>
			<point x="144" y="381" type="line"/>
			<point x="144" y="510" type="line"/>
			<point x="64" y="510" type="line"/>
		</contour>
	</outline>
</glyph>
<glyph name="o" format="2">
	<advance width="566"/>
	<unicode hex="006F"/>
	<anchor x="283" y="0" name="bottom"/>
	<anchor x="283" y="255" name="center"/>
	<anchor x="509" y="10" name="ogonek"/>
	<anchor x="283" y="510" name="top"/>
	<anchor x="546" y="510" name="topright"/>
	<outline>
		<contour>
			<point x="281" y="-12" type="curve" smooth="yes"/>
			<point x="427" y="-12"/>
			<point x="530" y="99"/>
			<point x="530" y="255" type="curve" smooth="yes"/>
			<point x="530" y="411"/>
			<point x="427" y="522"/>
			<point x="281" y="522" type="curve" smooth="yes"/>
			<point x="137" y="522"/>
			<point x="36" y="411"/>
			<point x="36" y="255" type="curve" smooth="yes"/>
			<point x="36" y="99"/>
			<point x="137" y="-12"/>
		</contour>
		<contour>
			<point x="281" y="63" type="curve" smooth="yes"/>
			<point x="190" y="63"/>
			<point x="126" y="142"/>
			<point x="126" y="255" type="curve" smooth="yes"/>
			<point x="126" y="367"/>
			<point x="190" y="447"/>
			<point x="281" y="447" type="curve" smooth="yes"/>
			<point x="374" y="447"/>
			<point x="440" y="367"/>
			<point x="440" y="255" type="curve" smooth="yes"/>
			<point x="440" y="142"/>
			<point x="374" y="63"/>
		</contour>
	</outline>
</glyph>
<glyph name="p" format="2">
	<advance width="573"/>
	<unicode hex="0070"/>
	<anchor x="287" y="0" name="bottom"/>
	<anchor x="287" y="510" name="top"/>
	<outline>
		<contour>
			<point x="64" y="-204" type="line"/>
			<point x="149" y="-204" type="line"/>
			<point x="149" y="130" type="line"/>
			<point x="135" y="111" type="line"/>
			<point x="162" y="35"/>
			<point x="232" y="-12"/>
			<point x="312" y="-12" type="curve" smooth="yes"/>
			<point x="441" y="-12"/>
			<point x="537" y="102"/>
			<point x="537" y="256" type="curve" smooth="yes"/>
			<point x="537" y="410"/>
			<point x="442" y="522"/>
			<point x="311" y="522" type="curve" smooth="yes"/>
			<point x="229" y="522"/>
			<point x="153" y="472"/>
			<point x="132" y="389" type="curve"/>
			<point x="149" y="383" type="line"/>
			<point x="149" y="510" type="line"/>
			<point x="64" y="510" type="line"/>
		</contour>
		<contour>
			<point x="298" y="63" type="curve" smooth="yes"/>
			<point x="214" y="63"/>
			<point x="148" y="141"/>
			<point x="148" y="255" type="curve" smooth="yes"/>
			<point x="148" y="370"/>
			<point x="209" y="447"/>
			<point x="298" y="447" type="curve" smooth="yes"/>
			<point x="385" y="447"/>
			<point x="447" y="368"/>
			<point x="447" y="255" type="curve" smooth="yes"/>
			<point x="447" y="143"/>
			<point x="385" y="63"/>
		</contour>
	</outline>
</glyph>
<glyph name="r" format="2">
	<advance width="381"/>
	<unicode hex="0072"/>
	<guideline x="362" y="469" angle="80.9097"/>
	<anchor x="107" y="0" name="bottom"/>
	<anchor x="191" y="510" name="top"/>
	<outline>
		<contour>
			<point x="64" y="0" type="line"/>
			<point x="149" y="0" type="line"/>
			<point x="149" y="229" type="line" smooth="yes"/>
			<point x="149" y="360"/>
			<point x="208" y="445"/>
			<point x="289" y="445" type="curve" smooth="yes"/>
			<point x="312" y="445"/>
			<point x="331" y="441"/>
			<point x="356" y="429" type="curve"/>
			<point x="368" y="506" type="line"/>
			<point x="343" y="516"/>
			<point x="320" y="520"/>
			<point x="291" y="520" type="curve" smooth="yes"/>
			<point x="202" y="520"/>
			<point x="155" y="451"/>
			<point x="132" y="376" type="curve"/>
			<point x="146" y="370" type="line"/>
			<point x="146" y="510" type="line"/>
			<point x="64" y="510" type="line"/>
		</contour>
	</outline>
</glyph>
<glyph name="s" format="2">
	<advance width="496"/>
	<unicode hex="0073"/>
	<guideline x="544" y="351" angle="198.2171"/>
	<guideline x="399" y="396" angle="198.2171"/>
	<guideline x="86" y="131" angle="199.4766"/>
	<anchor x="248" y="0" name="bottom"/>
	<anchor x="248" y="510" name="top"/>
	<outline>
		<contour>
			<point x="255" y="-12" type="curve" smooth="yes"/>
			<point x="380" y="-12"/>
			<point x="466" y="48"/>
			<point x="466" y="152" type="curve" smooth="yes"/>
			<point x="466" y="255"/>
			<point x="378" y="280"/>
			<point x="292" y="299" type="curve" smooth="yes"/>
			<point x="191" y="321"/>
			<point x="141" y="335"/>
			<point x="141" y="381" type="curve" smooth="yes"/>
			<point x="141" y="419"/>
			<point x="182" y="447"/>
			<point x="251" y="447" type="curve" smooth="yes"/>
			<point x="312" y="447"/>
			<point x="352" y="420"/>
			<point x="361" y="383" type="curve"/>
			<point x="441" y="408" type="line"/>
			<point x="421" y="480"/>
			<point x="341" y="522"/>
			<point x="245" y="522" type="curve" smooth="yes"/>
			<point x="143" y="522"/>
			<point x="51" y="470"/>
			<point x="51" y="376" type="curve" smooth="yes"/>
			<point x="51" y="286"/>
			<point x="139" y="250"/>
			<point x="224" y="233" type="curve" smooth="yes"/>
			<point x="326" y="213"/>
			<point x="376" y="201"/>
			<point x="376" y="145" type="curve" smooth="yes"/>
			<point x="376" y="93"/>
			<point x="328" y="63"/>
			<point x="252" y="63" type="curve" smooth="yes"/>
			<point x="183" y="63"/>
			<point x="133" y="91"/>
			<point x="115" y="165" type="curve"/>
			<point x="33" y="136" type="line"/>
			<point x="61" y="37"/>
			<point x="145" y="-12"/>
		</contour>
	</outline>
</glyph>
<glyph name="t" format="2">
	<advance width="405"/>
	<unicode hex="0074"/>
	<anchor x="249" y="0" name="bottom"/>
	<anchor x="204" y="250" name="center"/>
	<anchor x="204" y="509" name="top"/>
	<anchor x="383" y="509" name="topright"/>
	<outline>
		<contour>
			<point x="250" y="-9" type="curve" smooth="yes"/>
			<point x="306" y="-9"/>
			<point x="351" y="9"/>
			<point x="393" y="38" type="curve"/>
			<point x="364" y="105" type="line"/>
			<point x="329" y="79"/>
			<point x="298" y="66"/>
			<point x="266" y="66" type="curve" smooth="yes"/>
			<point x="228" y="66"/>
			<point x="203" y="84"/>
			<point x="203" y="146" type="curve" smooth="yes"/>
			<point x="203" y="654" type="line"/>
			<point x="118" y="654" type="line"/>
			<point x="118" y="143" type="line" smooth="yes"/>
			<point x="118" y="43"/>
			<point x="167" y="-9"/>
		</contour>
		<contour>
			<point x="23" y="435" type="line"/>
			<point x="371" y="435" type="line"/>
			<point x="371" y="510" type="line"/>
			<point x="23" y="510" type="line"/>
		</contour>
	</outline>
</glyph>
<glyph name="v" format="2">
	<advance width="498"/>
	<unicode hex="0076"/>
	<anchor x="249" y="0" name="bottom"/>
	<anchor x="249" y="510" name="top"/>
	<outline>
		<contour>
			<point x="204" y="-5" type="line"/>
			<point x="294" y="-5" type="line"/>
			<point x="484" y="510" type="line"/>
			<point x="392" y="510" type="line"/>
			<point x="250" y="81" type="line"/>
			<point x="248" y="81" type="line"/>
			<point x="106" y="510" type="line"/>
			<point x="14" y="510" type="line"/>
		</contour>
	</outline>
</glyph>
<glyph name="w" format="2">
	<advance width="751"/>
	<unicode hex="0077"/>
	<anchor x="376" y="0" name="bottom"/>
	<anchor x="376" y="510" name="top"/>
	<outline>
		<contour>
			<point x="181" y="0" type="line"/>
			<point x="270" y="0" type="line"/>
			<point x="377" y="404" type="line"/>
			<point x="379" y="404" type="line"/>
			<point x="487" y="0" type="line"/>
			<point x="575" y="0" type="line"/>
			<point x="734" y="510" type="line"/>
			<point x="642" y="510" type="line"/>
			<point x="536" y="99" type="line"/>
			<point x="534" y="99" type="line"/>
			<point x="424" y="510" type="line"/>
			<point x="333" y="510" type="line"/>
			<point x="227" y="99" type="line"/>
			<point x="225" y="99" type="line"/>
			<point x="109" y="510" type="line"/>
			<point x="17" y="510" type="line"/>
		</contour>
	</outline>
</glyph>
<glyph name="x" format="2">
	<advance width="518"/>
	<unicode hex="0078"/>
	<anchor x="257" y="0" name="bottom"/>
	<anchor x="257" y="509" name="top"/>
	<outline>
		<contour>
			<point x="399" y="0" type="line"/>
			<point x="509" y="0" type="line"/>
			<point x="300" y="289" type="line"/>
			<point x="269" y="315" type="line"/>
			<point x="136" y="510" type="line"/>
			<point x="27" y="510" type="line"/>
			<point x="215" y="255" type="line"/>
			<point x="249" y="222" type="line"/>
		</contour>
		<contour>
			<point x="9" y="0" type="line"/>
			<point x="111" y="0" type="line"/>
			<point x="259" y="220" type="line"/>
			<point x="208" y="281" type="line"/>
		</contour>
		<contour>
			<point x="298" y="265" type="line"/>
			<point x="480" y="510" type="line"/>
			<point x="378" y="510" type="line"/>
			<point x="247" y="325" type="line"/>
		</contour>
	</outline>
</glyph>
<glyph name="y" format="2">
	<advance width="498"/>
	<unicode hex="0079"/>
	<guideline x="322" y="302" angle="251.1529"/>
	<guideline x="484" y="510" angle="251.1529"/>
	<anchor x="237" y="0" name="bottom"/>
	<anchor x="244" y="509" name="top"/>
	<outline>
		<contour>
			<point x="132" y="-204" type="line" name="🧨"/>
			<point x="217" y="-204" type="line"/>
			<point x="484" y="510" type="line"/>
			<point x="392" y="510" type="line"/>
			<point x="250" y="93" type="line"/>
			<point x="248" y="93" type="line"/>
			<point x="106" y="510" type="line"/>
			<point x="14" y="510" type="line"/>
			<point x="224" y="-41" type="line"/>
			<point x="224" y="26" type="line"/>
		</contour>
		<contour>
			<point x="67" y="-204" type="line"/>
			<point x="205" y="-204" type="line" name="🧨"/>
			<point x="205" y="-129" type="line"/>
			<point x="67" y="-129" type="line"/>
		</contour>
	</outline>
</glyph>
<glyph name="z" format="2">
	<advance width="477"/>
	<unicode hex="007A"/>
	<anchor x="241" y="0" name="bottom"/>
	<anchor x="241" y="255" name="center"/>
	<anchor x="241" y="510" name="top"/>
	<outline>
		<contour>
			<point x="26" y="0" type="line"/>
			<point x="455" y="0" type="line"/>
			<point x="455" y="75" type="line"/>
			<point x="87" y="75" type="line"/>
			<point x="110" y="48" type="line"/>
			<point x="440" y="445" type="line"/>
			<point x="440" y="510" type="line"/>
			<point x="46" y="510" type="line"/>
			<point x="46" y="435" type="line"/>
			<point x="392" y="435" type="line"/>
			<point x="363" y="466" type="line"/>
			<point x="26" y="65" type="line"/>
		</contour>
	</outline>
</glyph>
<glyph name="braceleft" format="2">
	<advance width="333"/>
	<unicode hex="007B"/>
	<outline>
		<contour>
			<point x="309" y="-198" type="curve"/>
			<point x="309" y="-138" type="line"/>
			<point x="227" y="-141"/>
			<point x="212" y="-121"/>
			<point x="212" y="-57" type="curve" smooth="yes"/>
			<point x="212" y="131" type="line" smooth="yes"/>
			<point x="212" y="203"/>
			<point x="186" y="245"/>
			<point x="124" y="266" type="curve"/>
			<point x="186" y="286"/>
			<point x="212" y="339"/>
			<point x="212" y="421" type="curve" smooth="yes"/>
			<point x="212" y="581" type="line" smooth="yes"/>
			<point x="212" y="645"/>
			<point x="227" y="664"/>
			<point x="309" y="662" type="curve"/>
			<point x="309" y="722" type="line"/>
			<point x="178" y="728"/>
			<point x="132" y="686"/>
			<point x="132" y="586" type="curve" smooth="yes"/>
			<point x="132" y="431" type="line" smooth="yes"/>
			<point x="132" y="349"/>
			<point x="99" y="301"/>
			<point x="48" y="301" type="curve"/>
			<point x="48" y="230" type="line"/>
			<point x="99" y="231"/>
			<point x="132" y="190"/>
			<point x="132" y="120" type="curve" smooth="yes"/>
			<point x="132" y="-62" type="line" smooth="yes"/>
			<point x="132" y="-162"/>
			<point x="178" y="-204"/>
		</contour>
	</outline>
</glyph>
<glyph name="cent" format="2">
	<advance width="507"/>
	<unicode hex="00A2"/>
	<outline>
		<contour>
			<point x="300" y="29" type="line"/>
			<point x="224" y="29" type="line"/>
			<point x="224" y="-116" type="line"/>
			<point x="300" y="-116" type="line"/>
		</contour>
		<contour>
			<point x="224" y="475" type="line"/>
			<point x="300" y="475" type="line"/>
			<point x="300" y="624" type="line"/>
			<point x="224" y="624" type="line"/>
		</contour>
		<component base="c"/>
	</outline>
</glyph>
<glyph name="sterling" format="2">
	<advance width="554"/>
	<unicode hex="00A3"/>
	<outline>
		<contour>
			<point x="58" y="0" type="line"/>
			<point x="518" y="0" type="line"/>
			<point x="518" y="75" type="line"/>
			<point x="151" y="75" type="line"/>
			<point x="154" y="52" type="line"/>
			<point x="248" y="120"/>
			<point x="276" y="177"/>
			<point x="276" y="228" type="curve" smooth="yes"/>
			<point x="276" y="317"/>
			<point x="187" y="386"/>
			<point x="187" y="506" type="curve" smooth="yes"/>
			<point x="187" y="578"/>
			<point x="227" y="625"/>
			<point x="300" y="625" type="curve" smooth="yes"/>
			<point x="365" y="625"/>
			<point x="404" y="599"/>
			<point x="424" y="501" type="curve"/>
			<point x="509" y="533" type="line"/>
			<point x="476" y="652"/>
			<point x="407" y="700"/>
			<point x="296" y="700" type="curve" smooth="yes"/>
			<point x="174" y="700"/>
			<point x="97" y="623"/>
			<point x="97" y="505" type="curve" smooth="yes"/>
			<point x="97" y="373"/>
			<point x="186" y="305"/>
			<point x="186" y="224" type="curve" smooth="yes"/>
			<point x="186" y="178"/>
			<point x="155" y="126"/>
			<point x="58" y="61" type="curve"/>
		</contour>
		<contour>
			<point x="58" y="283" type="line"/>
			<point x="424" y="283" type="line"/>
			<point x="424" y="353" type="line"/>
			<point x="58" y="353" type="line"/>
		</contour>
	</outline>
</glyph>
<glyph name="currency" format="2">
	<advance width="545"/>
	<unicode hex="00A4"/>
	<outline>
		<contour>
			<point x="59" y="83" type="line"/>
			<point x="135" y="159" type="line"/>
			<point x="172" y="131"/>
			<point x="219" y="114"/>
			<point x="272" y="114" type="curve" smooth="yes"/>
			<point x="326" y="114"/>
			<point x="373" y="131"/>
			<point x="410" y="159" type="curve"/>
			<point x="486" y="83" type="line"/>
			<point x="539" y="137" type="line"/>
			<point x="461" y="215" type="line"/>
			<point x="486" y="253"/>
			<point x="500" y="298"/>
			<point x="500" y="350" type="curve" smooth="yes"/>
			<point x="500" y="402"/>
			<point x="486" y="447"/>
			<point x="461" y="485" type="curve"/>
			<point x="539" y="563" type="line"/>
			<point x="486" y="617" type="line"/>
			<point x="410" y="541" type="line"/>
			<point x="373" y="569"/>
			<point x="326" y="585"/>
			<point x="272" y="585" type="curve" smooth="yes"/>
			<point x="219" y="585"/>
			<point x="172" y="569"/>
			<point x="135" y="541" type="curve"/>
			<point x="59" y="617" type="line"/>
			<point x="6" y="563" type="line"/>
			<point x="85" y="485" type="line"/>
			<point x="60" y="447"/>
			<point x="47" y="402"/>
			<point x="47" y="350" type="curve" smooth="yes"/>
			<point x="47" y="298"/>
			<point x="60" y="253"/>
			<point x="85" y="215" type="curve"/>
			<point x="6" y="137" type="line"/>
		</contour>
		<contour>
			<point x="272" y="189" type="curve" smooth="yes"/>
			<point x="185" y="189"/>
			<point x="127" y="256"/>
			<point x="127" y="350" type="curve" smooth="yes"/>
			<point x="127" y="443"/>
			<point x="185" y="510"/>
			<point x="272" y="510" type="curve" smooth="yes"/>
			<point x="361" y="510"/>
			<point x="420" y="443"/>
			<point x="420" y="350" type="curve" smooth="yes"/>
			<point x="420" y="256"/>
			<point x="361" y="189"/>
		</contour>
	</outline>
</glyph>
<glyph name="yen" format="2">
	<advance width="624"/>
	<unicode hex="00A5"/>
	<anchor x="312" y="0" name="bottom"/>
	<anchor x="312" y="706" name="top"/>
	<anchor x="18" y="706" name="topleft"/>
	<outline>
		<contour>
			<point x="90" y="299" type="line"/>
			<point x="535" y="299" type="line"/>
			<point x="535" y="369" type="line"/>
			<point x="90" y="369" type="line"/>
		</contour>
		<contour>
			<point x="90" y="174" type="line"/>
			<point x="535" y="174" type="line"/>
			<point x="535" y="244" type="line"/>
			<point x="90" y="244" type="line"/>
		</contour>
		<contour>
			<point x="265" y="0" type="line"/>
			<point x="360" y="0" type="line"/>
			<point x="360" y="312" type="line"/>
			<point x="589" y="706" type="line"/>
			<point x="482" y="706" type="line"/>
			<point x="294" y="363" type="line"/>
			<point x="337" y="363" type="line"/>
			<point x="149" y="706" type="line"/>
			<point x="35" y="706" type="line"/>
			<point x="265" y="312" type="line"/>
		</contour>
	</outline>
</glyph>
<glyph name="registered" format="2">
	<advance width="556"/>
	<unicode hex="00AE"/>
	<outline>
		<contour>
			<point x="278" y="266" type="curve" smooth="yes"/>
			<point x="404" y="266"/>
			<point x="500" y="362"/>
			<point x="500" y="492" type="curve" smooth="yes"/>
			<point x="500" y="620"/>
			<point x="404" y="716"/>
			<point x="278" y="716" type="curve" smooth="yes"/>
			<point x="151" y="716"/>
			<point x="56" y="620"/>
			<point x="56" y="492" type="curve" smooth="yes"/>
			<point x="56" y="362"/>
			<point x="151" y="266"/>
		</contour>
		<contour>
			<point x="328" y="385" type="line"/>
			<point x="374" y="385" type="line" name="🧨"/>
			<point x="316" y="483" type="line"/>
			<point x="273" y="481" type="line"/>
		</contour>
		<contour>
			<point x="339" y="385" type="line" name="🧨"/>
			<point x="380" y="385" type="line"/>
			<point x="380" y="418" type="line"/>
			<point x="339" y="418" type="line"/>
		</contour>
		<contour>
			<point x="278" y="316" type="curve" smooth="yes"/>
			<point x="180" y="316"/>
			<point x="107" y="392"/>
			<point x="107" y="492" type="curve" smooth="yes"/>
			<point x="107" y="591"/>
			<point x="180" y="666"/>
			<point x="278" y="666" type="curve" smooth="yes"/>
			<point x="375" y="666"/>
			<point x="449" y="591"/>
			<point x="449" y="492" type="curve" smooth="yes"/>
			<point x="449" y="392"/>
			<point x="375" y="316"/>
		</contour>
		<contour>
			<point x="201" y="385" type="line"/>
			<point x="239" y="385" type="line"/>
			<point x="239" y="568" type="line"/>
			<point x="292" y="568" type="line" smooth="yes"/>
			<point x="314" y="568"/>
			<point x="328" y="554"/>
			<point x="328" y="537" type="curve" smooth="yes"/>
			<point x="328" y="517"/>
			<point x="314" y="502"/>
			<point x="292" y="502" type="curve" smooth="yes"/>
			<point x="231" y="502" type="line"/>
			<point x="231" y="469" type="line"/>
			<point x="301" y="470" type="line" smooth="yes"/>
			<point x="338" y="471"/>
			<point x="368" y="496"/>
			<point x="368" y="537" type="curve" smooth="yes"/>
			<point x="368" y="574"/>
			<point x="337" y="602"/>
			<point x="297" y="602" type="curve" smooth="yes"/>
			<point x="201" y="602" type="line"/>
		</contour>
	</outline>
</glyph>
<glyph name="plusminus" format="2">
	<advance width="600"/>
	<unicode hex="00B1"/>
	<outline>
		<contour>
			<point x="48" y="3" type="line"/>
			<point x="552" y="3" type="line"/>
			<point x="552" y="73" type="line"/>
			<point x="48" y="73" type="line"/>
		</contour>
		<contour>
			<point x="48" y="273" type="line"/>
			<point x="552" y="273" type="line"/>
			<point x="552" y="343" type="line"/>
			<point x="48" y="343" type="line"/>
		</contour>
		<contour>
			<point x="265" y="107" type="line"/>
			<point x="335" y="107" type="line"/>
			<point x="335" y="508" type="line"/>
			<point x="265" y="508" type="line"/>
		</contour>
	</outline>
</glyph>
<glyph name="periodcentered" format="2">
	<advance width="256"/>
	<unicode hex="00B7"/>
	<outline>
		<contour>
			<point x="80" y="309" type="line"/>
			<point x="176" y="309" type="line"/>
			<point x="176" y="411" type="line"/>
			<point x="80" y="411" type="line"/>
		</contour>
	</outline>
</glyph>
<glyph name="AE" format="2">
	<advance width="928"/>
	<unicode hex="00C6"/>
	<anchor x="493" y="0" name="bottom"/>
	<anchor x="493" y="706" name="top"/>
	<outline>
		<contour>
			<point x="-7" y="0" type="line"/>
			<point x="97" y="0" type="line"/>
			<point x="401" y="626" type="line"/>
			<point x="445" y="626" type="line"/>
			<point x="445" y="0" type="line"/>
			<point x="890" y="0" type="line"/>
			<point x="890" y="80" type="line"/>
			<point x="540" y="80" type="line"/>
			<point x="540" y="626" type="line"/>
			<point x="880" y="626" type="line"/>
			<point x="880" y="706" type="line"/>
			<point x="348" y="706" type="line"/>
			<point x="-7" y="3" type="line"/>
		</contour>
		<contour>
			<point x="157" y="142" type="line"/>
			<point x="479" y="142" type="line"/>
			<point x="479" y="220" type="line"/>
			<point x="196" y="220" type="line"/>
		</contour>
		<contour>
			<point x="518" y="323" type="line"/>
			<point x="845" y="323" type="line"/>
			<point x="845" y="403" type="line"/>
			<point x="518" y="403" type="line"/>
		</contour>
	</outline>
</glyph>
<glyph name="Eth" format="2">
	<advance width="722"/>
	<unicode hex="00D0"/>
	<outline>
		<contour>
			<point x="28" y="319" type="line"/>
			<point x="367" y="319" type="line"/>
			<point x="367" y="389" type="line"/>
			<point x="28" y="389" type="line"/>
		</contour>
		<contour>
			<point x="101" y="0" type="line"/>
			<point x="343" y="0" type="line" smooth="yes"/>
			<point x="569" y="0"/>
			<point x="684" y="147"/>
			<point x="684" y="352" type="curve" smooth="yes"/>
			<point x="684" y="558"/>
			<point x="566" y="706"/>
			<point x="343" y="706" type="curve" smooth="yes"/>
			<point x="101" y="706" type="line"/>
		</contour>
		<contour>
			<point x="196" y="44" type="line"/>
			<point x="196" y="662" type="line"/>
			<point x="154" y="626" type="line"/>
			<point x="351" y="626" type="line" smooth="yes"/>
			<point x="515" y="626"/>
			<point x="589" y="507"/>
			<point x="589" y="352" type="curve" smooth="yes"/>
			<point x="589" y="198"/>
			<point x="517" y="80"/>
			<point x="351" y="80" type="curve" smooth="yes"/>
			<point x="154" y="80" type="line"/>
		</contour>
	</outline>
</glyph>
<glyph name="multiply" format="2">
	<advance width="601"/>
	<unicode hex="00D7"/>
	<outline>
		<contour>
			<point x="481" y="24" type="line"/>
			<point x="531" y="73" type="line"/>
			<point x="121" y="483" type="line"/>
			<point x="71" y="434" type="line"/>
		</contour>
		<contour>
			<point x="120" y="24" type="line"/>
			<point x="530" y="434" type="line"/>
			<point x="480" y="483" type="line"/>
			<point x="70" y="73" type="line"/>
		</contour>
	</outline>
</glyph>
<glyph name="Oslash" format="2">
	<advance width="750"/>
	<unicode hex="00D8"/>
	<guideline x="413" y="324" angle="55.1343"/>
	<anchor x="375" y="0" name="bottom"/>
	<anchor x="375" y="706" name="top"/>
	<outline>
		<contour>
			<point x="83" y="-11" type="line"/>
			<point x="177" y="91" type="line"/>
			<point x="187" y="104" type="line"/>
			<point x="591" y="540" type="line"/>
			<point x="607" y="556" type="line"/>
			<point x="712" y="668" type="line"/>
			<point x="666" y="711" type="line"/>
			<point x="566" y="603" type="line"/>
			<point x="547" y="579" type="line"/>
			<point x="146" y="147" type="line"/>
			<point x="130" y="132" type="line"/>
			<point x="38" y="33" type="line"/>
		</contour>
		<component base="O"/>
	</outline>
</glyph>
<glyph name="Thorn" format="2">
	<advance width="642"/>
	<unicode hex="00DE"/>
	<anchor x="321" y="0" name="bottom"/>
	<anchor x="321" y="706" name="top"/>
	<outline>
		<contour>
			<point x="154" y="166" type="line"/>
			<point x="371" y="166" type="line" smooth="yes"/>
			<point x="545" y="166"/>
			<point x="604" y="274"/>
			<point x="604" y="380" type="curve" smooth="yes"/>
			<point x="604" y="484"/>
			<point x="542" y="594"/>
			<point x="374" y="594" type="curve" smooth="yes"/>
			<point x="157" y="594" type="line"/>
			<point x="157" y="514" type="line"/>
			<point x="348" y="514" type="line" smooth="yes"/>
			<point x="472" y="514"/>
			<point x="509" y="451"/>
			<point x="509" y="381" type="curve" smooth="yes"/>
			<point x="509" y="315"/>
			<point x="482" y="246"/>
			<point x="345" y="246" type="curve" smooth="yes"/>
			<point x="154" y="246" type="line"/>
		</contour>
		<contour>
			<point x="78" y="0" type="line"/>
			<point x="173" y="0" type="line"/>
			<point x="173" y="706" type="line"/>
			<point x="78" y="706" type="line"/>
		</contour>
	</outline>
</glyph>
<glyph name="germandbls" format="2">
	<advance width="534"/>
	<unicode hex="00DF"/>
	<anchor x="257" y="0" name="bottom"/>
	<anchor x="257" y="510" name="top"/>
	<outline>
		<contour>
			<point x="64" y="0" type="line"/>
			<point x="149" y="0" type="line"/>
			<point x="149" y="526" type="line" smooth="yes"/>
			<point x="149" y="578"/>
			<point x="169" y="637"/>
			<point x="266" y="637" type="curve" smooth="yes"/>
			<point x="339" y="637"/>
			<point x="378" y="608"/>
			<point x="378" y="539" type="curve" smooth="yes"/>
			<point x="378" y="466"/>
			<point x="334" y="430"/>
			<point x="227" y="427" type="curve"/>
			<point x="227" y="359" type="line"/>
			<point x="354" y="356"/>
			<point x="415" y="321"/>
			<point x="415" y="204" type="curve" smooth="yes"/>
			<point x="415" y="113"/>
			<point x="378" y="63"/>
			<point x="304" y="63" type="curve" smooth="yes"/>
			<point x="282" y="63"/>
			<point x="251" y="67"/>
			<point x="220" y="79" type="curve"/>
			<point x="199" y="3" type="line"/>
			<point x="245" y="-10"/>
			<point x="288" y="-12"/>
			<point x="306" y="-12" type="curve" smooth="yes"/>
			<point x="429" y="-12"/>
			<point x="505" y="82"/>
			<point x="505" y="205" type="curve" smooth="yes"/>
			<point x="505" y="323"/>
			<point x="434" y="405"/>
			<point x="325" y="405" type="curve"/>
			<point x="325" y="392" type="line"/>
			<point x="422" y="409"/>
			<point x="468" y="468"/>
			<point x="468" y="546" type="curve" smooth="yes"/>
			<point x="468" y="645"/>
			<point x="394" y="712"/>
			<point x="267" y="712" type="curve" smooth="yes"/>
			<point x="138" y="712"/>
			<point x="64" y="646"/>
			<point x="64" y="527" type="curve" smooth="yes"/>
		</contour>
	</outline>
</glyph>
<glyph name="ae" format="2">
	<advance width="872"/>
	<unicode hex="00E6"/>
	<anchor x="436" y="0" name="bottom"/>
	<anchor x="436" y="510" name="top"/>
	<outline>
		<contour>
			<point x="617" y="-12" type="curve" smooth="yes"/>
			<point x="729" y="-12"/>
			<point x="785" y="48"/>
			<point x="819" y="136" type="curve"/>
			<point x="737" y="165" type="line"/>
			<point x="715" y="101"/>
			<point x="686" y="63"/>
			<point x="619" y="63" type="curve" smooth="yes"/>
			<point x="529" y="63"/>
			<point x="465" y="120"/>
			<point x="465" y="255" type="curve" smooth="yes"/>
			<point x="465" y="375"/>
			<point x="525" y="447"/>
			<point x="603" y="447" type="curve" smooth="yes"/>
			<point x="681" y="447"/>
			<point x="731" y="384"/>
			<point x="738" y="274" type="curve"/>
			<point x="769" y="308" type="line"/>
			<point x="453" y="308" type="line"/>
			<point x="453" y="237" type="line"/>
			<point x="823" y="237" type="line"/>
			<point x="828" y="402"/>
			<point x="745" y="522"/>
			<point x="603" y="522" type="curve" smooth="yes"/>
			<point x="474" y="522"/>
			<point x="387" y="402"/>
			<point x="387" y="257" type="curve" smooth="yes"/>
			<point x="387" y="97"/>
			<point x="466" y="-12"/>
		</contour>
		<contour>
			<point x="206" y="-8" type="curve" smooth="yes"/>
			<point x="350" y="-8"/>
			<point x="413" y="71"/>
			<point x="440" y="172" type="curve"/>
			<point x="457" y="328" type="line"/>
			<point x="457" y="464"/>
			<point x="379" y="522"/>
			<point x="273" y="522" type="curve" smooth="yes"/>
			<point x="162" y="522"/>
			<point x="89" y="463"/>
			<point x="68" y="378" type="curve"/>
			<point x="148" y="351" type="line"/>
			<point x="165" y="405"/>
			<point x="192" y="447"/>
			<point x="267" y="447" type="curve" smooth="yes"/>
			<point x="330" y="447"/>
			<point x="380" y="418"/>
			<point x="380" y="337" type="curve" smooth="yes"/>
			<point x="380" y="273" type="line"/>
			<point x="388" y="171"/>
			<point x="327" y="67"/>
			<point x="224" y="67" type="curve" smooth="yes"/>
			<point x="172" y="67"/>
			<point x="134" y="94"/>
			<point x="134" y="140" type="curve" smooth="yes"/>
			<point x="134" y="228"/>
			<point x="244" y="237"/>
			<point x="393" y="237" type="curve"/>
			<point x="393" y="308" type="line"/>
			<point x="178" y="308"/>
			<point x="47" y="271"/>
			<point x="47" y="140" type="curve" smooth="yes"/>
			<point x="47" y="47"/>
			<point x="113" y="-8"/>
		</contour>
	</outline>
</glyph>
<glyph name="eth" format="2">
	<advance width="566"/>
	<unicode hex="00F0"/>
	<outline>
		<contour>
			<point x="282" y="-12" type="curve" smooth="yes"/>
			<point x="434" y="-12"/>
			<point x="516" y="107"/>
			<point x="516" y="260" type="curve" smooth="yes"/>
			<point x="516" y="512"/>
			<point x="374" y="664"/>
			<point x="164" y="737" type="curve"/>
			<point x="130" y="666" type="line"/>
			<point x="232" y="635"/>
			<point x="375" y="568"/>
			<point x="426" y="373" type="curve"/>
			<point x="436" y="384" type="line"/>
			<point x="405" y="470"/>
			<point x="335" y="500"/>
			<point x="269" y="500" type="curve" smooth="yes"/>
			<point x="136" y="500"/>
			<point x="36" y="391"/>
			<point x="36" y="235" type="curve" smooth="yes"/>
			<point x="36" y="70"/>
			<point x="155" y="-12"/>
		</contour>
		<contour>
			<point x="280" y="63" type="curve" smooth="yes"/>
			<point x="177" y="63"/>
			<point x="126" y="140"/>
			<point x="126" y="240" type="curve" smooth="yes"/>
			<point x="126" y="345"/>
			<point x="189" y="425"/>
			<point x="280" y="425" type="curve" smooth="yes"/>
			<point x="360" y="425"/>
			<point x="426" y="349"/>
			<point x="426" y="250" type="curve" smooth="yes"/>
			<point x="426" y="150"/>
			<point x="386" y="63"/>
		</contour>
		<contour>
			<point x="174" y="535" type="line"/>
			<point x="437" y="686" type="line"/>
			<point x="405" y="740" type="line"/>
			<point x="142" y="590" type="line"/>
		</contour>
	</outline>
</glyph>
<glyph name="divide" format="2">
	<advance width="600"/>
	<unicode hex="00F7"/>
	<outline>
		<contour>
			<point x="48" y="218" type="line"/>
			<point x="552" y="218" type="line"/>
			<point x="552" y="288" type="line"/>
			<point x="48" y="288" type="line"/>
		</contour>
		<contour>
			<point x="244" y="0" type="line"/>
			<point x="356" y="0" type="line"/>
			<point x="356" y="112" type="line"/>
			<point x="244" y="112" type="line"/>
		</contour>
		<contour>
			<point x="244" y="406" type="line"/>
			<point x="356" y="406" type="line"/>
			<point x="356" y="518" type="line"/>
			<point x="244" y="518" type="line"/>
		</contour>
	</outline>
</glyph>
<glyph name="oslash" format="2">
	<advance width="566"/>
	<unicode hex="00F8"/>
	<anchor x="297" y="509" name="top"/>
	<outline>
		<contour>
			<point x="114" y="-44" type="line"/>
			<point x="176" y="47" type="line"/>
			<point x="183" y="59" type="line"/>
			<point x="426" y="415" type="line"/>
			<point x="442" y="436" type="line"/>
			<point x="500" y="520" type="line"/>
			<point x="453" y="552" type="line"/>
			<point x="398" y="472" type="line"/>
			<point x="388" y="456" type="line"/>
			<point x="143" y="97" type="line"/>
			<point x="128" y="77" type="line"/>
			<point x="67" y="-12" type="line"/>
		</contour>
		<component base="o"/>
	</outline>
</glyph>
<glyph name="thorn" format="2">
	<advance width="573"/>
	<unicode hex="00FE"/>
	<anchor x="287" y="0" name="bottom"/>
	<anchor x="287" y="510" name="top"/>
	<outline>
		<contour>
			<point x="64" y="-204" type="line"/>
			<point x="149" y="-204" type="line"/>
			<point x="149" y="130" type="line"/>
			<point x="135" y="111" type="line"/>
			<point x="162" y="35"/>
			<point x="232" y="-12"/>
			<point x="312" y="-12" type="curve" smooth="yes"/>
			<point x="441" y="-12"/>
			<point x="537" y="102"/>
			<point x="537" y="256" type="curve" smooth="yes"/>
			<point x="537" y="410"/>
			<point x="442" y="522"/>
			<point x="311" y="522" type="curve" smooth="yes"/>
			<point x="229" y="522"/>
			<point x="153" y="472"/>
			<point x="132" y="389" type="curve"/>
			<point x="149" y="383" type="line"/>
			<point x="149" y="706" type="line"/>
			<point x="64" y="706" type="line"/>
		</contour>
		<contour>
			<point x="301" y="59" type="curve" smooth="yes"/>
			<point x="215" y="59"/>
			<point x="148" y="139"/>
			<point x="148" y="255" type="curve" smooth="yes"/>
			<point x="148" y="373"/>
			<point x="210" y="451"/>
			<point x="301" y="451" type="curve" smooth="yes"/>
			<point x="389" y="451"/>
			<point x="452" y="371"/>
			<point x="452" y="255" type="curve" smooth="yes"/>
			<point x="452" y="141"/>
			<point x="389" y="59"/>
		</contour>
	</outline>
</glyph>
<glyph name="dcaron" format="2">
	<advance width="605"/>
	<unicode hex="010F"/>
	<outline>
		<contour>
			<point x="559" y="526" type="line"/>
			<point x="621" y="526" type="line"/>
			<point x="661" y="706" type="line"/>
			<point x="574" y="706" type="line"/>
		</contour>
		<component base="d"/>
	</outline>
</glyph>
<glyph name="dcroat" format="2">
	<advance width="568"/>
	<unicode hex="0111"/>
	<outline>
		<contour>
			<point x="272" y="578" type="line"/>
			<point x="577" y="578" type="line"/>
			<point x="577" y="646" type="line"/>
			<point x="272" y="646" type="line"/>
		</contour>
		<component base="d"/>
	</outline>
</glyph>
<glyph name="eogonek" format="2">
	<advance width="555"/>
	<unicode hex="0119"/>
	<anchor x="278" y="510" name="top"/>
	<outline>
		<contour>
			<point x="286" y="-12" type="curve" smooth="yes"/>
			<point x="406" y="-12"/>
			<point x="465" y="48"/>
			<point x="498" y="136" type="curve"/>
			<point x="416" y="165" type="line"/>
			<point x="395" y="101"/>
			<point x="363" y="63"/>
			<point x="288" y="63" type="curve" smooth="yes"/>
			<point x="190" y="63"/>
			<point x="120" y="120"/>
			<point x="120" y="255" type="curve" smooth="yes"/>
			<point x="120" y="374"/>
			<point x="186" y="447"/>
			<point x="272" y="447" type="curve" smooth="yes"/>
			<point x="358" y="447"/>
			<point x="414" y="384"/>
			<point x="421" y="274" type="curve"/>
			<point x="452" y="303" type="line"/>
			<point x="108" y="303" type="line"/>
			<point x="108" y="231" type="line"/>
			<point x="506" y="231" type="line"/>
			<point x="511" y="402"/>
			<point x="423" y="522"/>
			<point x="272" y="522" type="curve" smooth="yes"/>
			<point x="131" y="522"/>
			<point x="36" y="402"/>
			<point x="36" y="257" type="curve" smooth="yes"/>
			<point x="36" y="97"/>
			<point x="121" y="-12"/>
		</contour>
		<contour>
			<point x="361" y="-215" type="curve" smooth="yes"/>
			<point x="392" y="-215"/>
			<point x="424" y="-207"/>
			<point x="448" y="-190" type="curve"/>
			<point x="426" y="-128" type="line"/>
			<point x="413" y="-138"/>
			<point x="397" y="-145"/>
			<point x="381" y="-145" type="curve" smooth="yes"/>
			<point x="355" y="-145"/>
			<point x="343" y="-132"/>
			<point x="343" y="-112" type="curve" smooth="yes"/>
			<point x="343" y="-82"/>
			<point x="375" y="-40"/>
			<point x="456" y="60" type="curve"/>
			<point x="407" y="90" type="line"/>
			<point x="307" y="-23"/>
			<point x="265" y="-76"/>
			<point x="265" y="-130" type="curve" smooth="yes"/>
			<point x="265" y="-177"/>
			<point x="296" y="-215"/>
		</contour>
	</outline>
</glyph>
<glyph name="Hbar" format="2">
	<advance width="760"/>
	<unicode hex="0126"/>
	<outline>
		<contour>
			<point x="40" y="517" type="line"/>
			<point x="720" y="517" type="line"/>
			<point x="720" y="587" type="line"/>
			<point x="40" y="587" type="line"/>
		</contour>
		<contour>
			<point x="565" y="0" type="line"/>
			<point x="660" y="0" type="line"/>
			<point x="660" y="706" type="line"/>
			<point x="565" y="706" type="line"/>
		</contour>
		<contour>
			<point x="100" y="0" type="line"/>
			<point x="195" y="0" type="line"/>
			<point x="195" y="706" type="line"/>
			<point x="100" y="706" type="line"/>
		</contour>
		<contour>
			<point x="178" y="323" type="line"/>
			<point x="581" y="323" type="line"/>
			<point x="581" y="403" type="line"/>
			<point x="178" y="403" type="line"/>
		</contour>
	</outline>
</glyph>
<glyph name="hbar" format="2">
	<advance width="561"/>
	<unicode hex="0127"/>
	<note>
		blue must check
	</note>
	<outline>
		<contour>
			<point x="-2" y="577" type="line"/>
			<point x="353" y="577" type="line"/>
			<point x="353" y="645" type="line"/>
			<point x="-2" y="645" type="line"/>
		</contour>
		<component base="h" xOffset="12"/>
	</outline>
</glyph>
<glyph name="Iogonek" format="2">
	<advance width="257"/>
	<unicode hex="012E"/>
	<outline>
		<contour>
			<point x="130" y="-221" type="curve" smooth="yes"/>
			<point x="161" y="-221"/>
			<point x="192" y="-212"/>
			<point x="217" y="-196" type="curve"/>
			<point x="196" y="-132" type="line"/>
			<point x="182" y="-141"/>
			<point x="167" y="-148"/>
			<point x="150" y="-148" type="curve" smooth="yes"/>
			<point x="125" y="-148"/>
			<point x="113" y="-135"/>
			<point x="113" y="-115" type="curve" smooth="yes"/>
			<point x="113" y="-80"/>
			<point x="138" y="-41"/>
			<point x="175" y="0" type="curve"/>
			<point x="104" y="28" type="line"/>
			<point x="59" y="-27"/>
			<point x="27" y="-78"/>
			<point x="27" y="-133" type="curve" smooth="yes"/>
			<point x="27" y="-186"/>
			<point x="64" y="-221"/>
		</contour>
		<contour>
			<point x="82" y="0" type="line"/>
			<point x="175" y="0" type="line" name="🔥"/>
			<point x="175" y="706" type="line"/>
			<point x="82" y="706" type="line"/>
		</contour>
	</outline>
</glyph>
<glyph name="iogonek" format="2">
	<advance width="213"/>
	<unicode hex="012F"/>
	<note>
		blue must check
	</note>
	<outline>
		<contour>
			<point x="64" y="0" type="line"/>
			<point x="149" y="0" type="line"/>
			<point x="149" y="510" type="line"/>
			<point x="64" y="510" type="line"/>
		</contour>
		<contour>
			<point x="63" y="605" type="line"/>
			<point x="149" y="605" type="line"/>
			<point x="149" y="706" type="line"/>
			<point x="63" y="706" type="line"/>
		</contour>
		<contour>
			<point x="109" y="-215" type="curve" smooth="yes"/>
			<point x="140" y="-215"/>
			<point x="172" y="-207"/>
			<point x="196" y="-190" type="curve"/>
			<point x="174" y="-128" type="line"/>
			<point x="161" y="-138"/>
			<point x="145" y="-145"/>
			<point x="129" y="-145" type="curve" smooth="yes"/>
			<point x="103" y="-145"/>
			<point x="91" y="-132"/>
			<point x="91" y="-112" type="curve" smooth="yes"/>
			<point x="91" y="-82"/>
			<point x="114" y="-40"/>
			<point x="149" y="0" type="curve" name="🔥"/>
			<point x="85" y="30" type="line"/>
			<point x="46" y="-23"/>
			<point x="13" y="-76"/>
			<point x="13" y="-130" type="curve" smooth="yes"/>
			<point x="13" y="-177"/>
			<point x="44" y="-215"/>
		</contour>
	</outline>
</glyph>
<glyph name="idotless" format="2">
	<advance width="213"/>
	<unicode hex="0131"/>
	<anchor x="106" y="0" name="bottom"/>
	<anchor x="158" y="0" name="ogonek"/>
	<anchor x="106" y="510" name="top"/>
	<outline>
		<contour>
			<point x="64" y="0" type="line"/>
			<point x="149" y="0" type="line"/>
			<point x="149" y="510" type="line"/>
			<point x="64" y="510" type="line"/>
		</contour>
	</outline>
</glyph>
<glyph name="Lcaron" format="2">
	<advance width="567"/>
	<unicode hex="013D"/>
	<outline>
		<contour>
			<point x="324" y="526" type="line"/>
			<point x="386" y="526" type="line"/>
			<point x="440" y="706" type="line"/>
			<point x="353" y="706" type="line"/>
		</contour>
		<contour>
			<point x="78" y="0" type="line"/>
			<point x="547" y="0" type="line"/>
			<point x="547" y="80" type="line"/>
			<point x="173" y="80" type="line"/>
			<point x="173" y="706" type="line"/>
			<point x="78" y="706" type="line"/>
		</contour>
	</outline>
</glyph>
<glyph name="lcaron" format="2">
	<advance width="270"/>
	<unicode hex="013E"/>
	<note>
		blue must check
	</note>
	<outline>
		<contour>
			<point x="199" y="526" type="line"/>
			<point x="261" y="526" type="line"/>
			<point x="301" y="706" type="line"/>
			<point x="214" y="706" type="line"/>
		</contour>
		<component base="l" xOffset="-5"/>
	</outline>
</glyph>
<glyph name="ldot" format="2">
	<advance width="343"/>
	<unicode hex="0140"/>
	<outline>
		<contour>
			<point x="228" y="299" type="line"/>
			<point x="314" y="299" type="line"/>
			<point x="314" y="401" type="line"/>
			<point x="228" y="401" type="line"/>
		</contour>
		<component base="l" xOffset="-5"/>
	</outline>
</glyph>
<glyph name="Lslash" format="2">
	<advance width="568"/>
	<unicode hex="0141"/>
	<outline>
		<contour>
			<point x="-1" y="204" type="line"/>
			<point x="402" y="428" type="line"/>
			<point x="402" y="508" type="line"/>
			<point x="-1" y="285" type="line"/>
		</contour>
		<contour>
			<point x="79" y="0" type="line"/>
			<point x="548" y="0" type="line"/>
			<point x="548" y="80" type="line"/>
			<point x="174" y="80" type="line"/>
			<point x="174" y="706" type="line"/>
			<point x="79" y="706" type="line"/>
		</contour>
	</outline>
</glyph>
<glyph name="lslash" format="2">
	<advance width="298"/>
	<unicode hex="0142"/>
	<note>
		blue must check
	</note>
	<outline>
		<contour>
			<point x="43" y="279" type="line"/>
			<point x="269" y="381" type="line"/>
			<point x="240" y="442" type="line"/>
			<point x="14" y="341" type="line"/>
		</contour>
		<component base="l" xOffset="29"/>
	</outline>
</glyph>
<glyph name="napostrophe" format="2">
	<advance width="549"/>
	<unicode hex="0149"/>
	<note>
		blue must check
	</note>
	<outline>
		<contour>
			<point x="-27" y="526" type="line"/>
			<point x="35" y="526" type="line"/>
			<point x="89" y="706" type="line"/>
			<point x="2" y="706" type="line"/>
		</contour>
		<component base="n"/>
	</outline>
</glyph>
<glyph name="Eng" format="2">
	<advance width="729"/>
	<unicode hex="014A"/>
	<guideline x="440" y="-225" angle="99.0903"/>
	<outline>
		<contour>
			<point x="440" y="-225" type="line"/>
			<point x="575" y="-225"/>
			<point x="651" y="-143"/>
			<point x="651" y="5" type="curve" smooth="yes"/>
			<point x="651" y="706" type="line"/>
			<point x="561" y="706" type="line"/>
			<point x="561" y="113" type="line"/>
			<point x="583" y="119" type="line"/>
			<point x="183" y="706" type="line"/>
			<point x="78" y="706" type="line"/>
			<point x="78" y="0" type="line"/>
			<point x="168" y="0" type="line"/>
			<point x="168" y="614" type="line"/>
			<point x="146" y="608" type="line"/>
			<point x="561" y="0" type="line"/>
			<point x="561" y="-92"/>
			<point x="513" y="-141"/>
			<point x="427" y="-141" type="curve"/>
		</contour>
	</outline>
</glyph>
<glyph name="eng" format="2">
	<advance width="549"/>
	<unicode hex="014B"/>
	<outline>
		<contour>
			<point x="338" y="-210" type="curve"/>
			<point x="433" y="-210"/>
			<point x="486" y="-142"/>
			<point x="486" y="-12" type="curve" smooth="yes"/>
			<point x="486" y="314" type="line" smooth="yes"/>
			<point x="486" y="450"/>
			<point x="422" y="522"/>
			<point x="304" y="522" type="curve" smooth="yes"/>
			<point x="223" y="522"/>
			<point x="160" y="475"/>
			<point x="133" y="403" type="curve"/>
			<point x="144" y="386" type="line"/>
			<point x="144" y="510" type="line"/>
			<point x="64" y="510" type="line"/>
			<point x="64" y="0" type="line"/>
			<point x="149" y="0" type="line"/>
			<point x="149" y="268" type="line" smooth="yes"/>
			<point x="149" y="377"/>
			<point x="205" y="447"/>
			<point x="292" y="447" type="curve" smooth="yes"/>
			<point x="363" y="447"/>
			<point x="401" y="403"/>
			<point x="401" y="313" type="curve" smooth="yes"/>
			<point x="401" y="-6" type="line" smooth="yes"/>
			<point x="401" y="-89"/>
			<point x="390" y="-137"/>
			<point x="340" y="-137" type="curve" smooth="yes"/>
			<point x="317" y="-137"/>
			<point x="298" y="-135"/>
			<point x="273" y="-124" type="curve"/>
			<point x="261" y="-199" type="line"/>
			<point x="286" y="-207"/>
			<point x="309" y="-210"/>
		</contour>
	</outline>
</glyph>
<glyph name="OE" format="2">
	<advance width="1109"/>
	<unicode hex="0152"/>
	<anchor x="565" y="0" name="bottom"/>
	<anchor x="565" y="706" name="top"/>
	<outline>
		<contour>
			<point x="601" y="0" type="line"/>
			<point x="1071" y="0" type="line"/>
			<point x="1071" y="80" type="line"/>
			<point x="696" y="80" type="line"/>
			<point x="696" y="626" type="line"/>
			<point x="1062" y="626" type="line"/>
			<point x="1062" y="706" type="line"/>
			<point x="601" y="706" type="line"/>
		</contour>
		<contour>
			<point x="676" y="323" type="line"/>
			<point x="1020" y="323" type="line"/>
			<point x="1020" y="403" type="line"/>
			<point x="676" y="403" type="line"/>
		</contour>
		<contour>
			<point x="364" y="-16" type="curve"/>
			<point x="556" y="-16"/>
			<point x="679" y="145"/>
			<point x="679" y="354" type="curve" smooth="yes"/>
			<point x="679" y="571"/>
			<point x="556" y="722"/>
			<point x="364" y="722" type="curve" smooth="yes"/>
			<point x="173" y="722"/>
			<point x="38" y="567"/>
			<point x="38" y="354" type="curve" smooth="yes"/>
			<point x="38" y="149"/>
			<point x="173" y="-16"/>
		</contour>
		<contour>
			<point x="370" y="64" type="curve"/>
			<point x="228" y="64"/>
			<point x="133" y="195"/>
			<point x="133" y="354" type="curve" smooth="yes"/>
			<point x="133" y="521"/>
			<point x="228" y="642"/>
			<point x="370" y="642" type="curve" smooth="yes"/>
			<point x="510" y="642"/>
			<point x="601" y="521"/>
			<point x="601" y="354" type="curve" smooth="yes"/>
			<point x="601" y="195"/>
			<point x="510" y="64"/>
		</contour>
	</outline>
</glyph>
<glyph name="oe" format="2">
	<advance width="917"/>
	<unicode hex="0153"/>
	<anchor x="483" y="0" name="bottom"/>
	<anchor x="483" y="509" name="top"/>
	<outline>
		<contour>
			<point x="662" y="-12" type="curve" smooth="yes"/>
			<point x="774" y="-12"/>
			<point x="830" y="48"/>
			<point x="864" y="136" type="curve"/>
			<point x="782" y="165" type="line"/>
			<point x="760" y="101"/>
			<point x="731" y="63"/>
			<point x="664" y="63" type="curve" smooth="yes"/>
			<point x="574" y="63"/>
			<point x="510" y="120"/>
			<point x="510" y="255" type="curve" smooth="yes"/>
			<point x="510" y="375"/>
			<point x="570" y="447"/>
			<point x="648" y="447" type="curve" smooth="yes"/>
			<point x="726" y="447"/>
			<point x="776" y="384"/>
			<point x="783" y="274" type="curve"/>
			<point x="814" y="303" type="line"/>
			<point x="498" y="303" type="line"/>
			<point x="498" y="231" type="line"/>
			<point x="868" y="231" type="line"/>
			<point x="873" y="402"/>
			<point x="790" y="522"/>
			<point x="648" y="522" type="curve" smooth="yes"/>
			<point x="519" y="522"/>
			<point x="432" y="402"/>
			<point x="432" y="257" type="curve" smooth="yes"/>
			<point x="432" y="97"/>
			<point x="511" y="-12"/>
		</contour>
		<contour>
			<point x="271" y="-12" type="curve" smooth="yes"/>
			<point x="404" y="-12"/>
			<point x="498" y="91"/>
			<point x="498" y="255" type="curve" smooth="yes" name="🧨"/>
			<point x="498" y="413"/>
			<point x="404" y="522"/>
			<point x="271" y="522" type="curve" smooth="yes"/>
			<point x="133" y="522"/>
			<point x="36" y="411"/>
			<point x="36" y="255" type="curve" smooth="yes"/>
			<point x="36" y="99"/>
			<point x="133" y="-12"/>
		</contour>
		<contour>
			<point x="271" y="63" type="curve" smooth="yes"/>
			<point x="186" y="63"/>
			<point x="126" y="142"/>
			<point x="126" y="255" type="curve" smooth="yes"/>
			<point x="126" y="367"/>
			<point x="186" y="447"/>
			<point x="271" y="447" type="curve" smooth="yes"/>
			<point x="358" y="447"/>
			<point x="420" y="367"/>
			<point x="420" y="255" type="curve" smooth="yes"/>
			<point x="420" y="142"/>
			<point x="358" y="63"/>
		</contour>
	</outline>
</glyph>
<glyph name="tcaron" format="2">
	<advance width="405"/>
	<unicode hex="0165"/>
	<note>
		blue must check
	</note>
	<outline>
		<contour>
			<point x="271" y="569" type="line"/>
			<point x="333" y="569" type="line"/>
			<point x="373" y="749" type="line"/>
			<point x="286" y="749" type="line"/>
		</contour>
		<component base="t"/>
	</outline>
</glyph>
<glyph name="Tbar" format="2">
	<advance width="569"/>
	<unicode hex="0166"/>
	<outline>
		<contour>
			<point x="110" y="301" type="line"/>
			<point x="458" y="301" type="line"/>
			<point x="458" y="371" type="line"/>
			<point x="110" y="371" type="line"/>
		</contour>
		<contour>
			<point x="237" y="0" type="line"/>
			<point x="332" y="0" type="line"/>
			<point x="332" y="637" type="line"/>
			<point x="237" y="637" type="line"/>
		</contour>
		<contour>
			<point x="3" y="626" type="line"/>
			<point x="566" y="626" type="line"/>
			<point x="566" y="706" type="line"/>
			<point x="3" y="706" type="line"/>
		</contour>
	</outline>
</glyph>
<glyph name="tbar" format="2">
	<advance width="405"/>
	<unicode hex="0167"/>
	<outline>
		<contour>
			<point x="63" y="235" type="line"/>
			<point x="327" y="235" type="line"/>
			<point x="327" y="303" type="line"/>
			<point x="63" y="303" type="line"/>
		</contour>
		<component base="t"/>
	</outline>
</glyph>
<glyph name="Uogonek" format="2">
	<advance width="702"/>
	<unicode hex="0172"/>
	<outline>
		<contour>
			<point x="436" y="-221" type="curve" smooth="yes"/>
			<point x="468" y="-221"/>
			<point x="499" y="-212"/>
			<point x="524" y="-196" type="curve"/>
			<point x="503" y="-132" type="line"/>
			<point x="489" y="-141"/>
			<point x="473" y="-148"/>
			<point x="457" y="-148" type="curve" smooth="yes"/>
			<point x="432" y="-148"/>
			<point x="419" y="-135"/>
			<point x="419" y="-115" type="curve" smooth="yes"/>
			<point x="419" y="-80"/>
			<point x="441" y="-40"/>
			<point x="546" y="48" type="curve"/>
			<point x="435" y="28" type="line"/>
			<point x="372" y="-27"/>
			<point x="334" y="-78"/>
			<point x="334" y="-133" type="curve" smooth="yes"/>
			<point x="334" y="-186"/>
			<point x="370" y="-221"/>
		</contour>
		<contour>
			<point x="352" y="-16" type="curve" smooth="yes"/>
			<point x="507" y="-16"/>
			<point x="628" y="71"/>
			<point x="628" y="245" type="curve" smooth="yes"/>
			<point x="628" y="706" type="line"/>
			<point x="533" y="706" type="line"/>
			<point x="533" y="249" type="line" smooth="yes"/>
			<point x="533" y="120"/>
			<point x="460" y="64"/>
			<point x="352" y="64" type="curve" smooth="yes"/>
			<point x="243" y="64"/>
			<point x="169" y="120"/>
			<point x="169" y="249" type="curve" smooth="yes"/>
			<point x="169" y="706" type="line"/>
			<point x="74" y="706" type="line"/>
			<point x="74" y="245" type="line" smooth="yes"/>
			<point x="74" y="71"/>
			<point x="195" y="-16"/>
		</contour>
	</outline>
</glyph>
<glyph name="florin" format="2">
	<advance width="542"/>
	<unicode hex="0192"/>
	<outline>
		<contour>
			<point x="108" y="-164" type="curve" smooth="yes"/>
			<point x="195" y="-164"/>
			<point x="261" y="-113"/>
			<point x="272" y="3" type="curve" smooth="yes"/>
			<point x="325" y="532" type="line" smooth="yes"/>
			<point x="333" y="603"/>
			<point x="364" y="637"/>
			<point x="414" y="637" type="curve" smooth="yes"/>
			<point x="433" y="637"/>
			<point x="449" y="632"/>
			<point x="470" y="621" type="curve"/>
			<point x="482" y="694" type="line"/>
			<point x="461" y="706"/>
			<point x="430" y="712"/>
			<point x="406" y="712" type="curve" smooth="yes"/>
			<point x="316" y="712"/>
			<point x="251" y="651"/>
			<point x="240" y="537" type="curve" smooth="yes"/>
			<point x="187" y="8" type="line" smooth="yes"/>
			<point x="180" y="-57"/>
			<point x="151" y="-89"/>
			<point x="100" y="-89" type="curve" smooth="yes"/>
			<point x="81" y="-89"/>
			<point x="65" y="-84"/>
			<point x="44" y="-73" type="curve"/>
			<point x="32" y="-146" type="line"/>
			<point x="53" y="-158"/>
			<point x="84" y="-164"/>
		</contour>
		<contour>
			<point x="104" y="346" type="line"/>
			<point x="440" y="346" type="line"/>
			<point x="440" y="421" type="line"/>
			<point x="104" y="421" type="line"/>
		</contour>
	</outline>
</glyph>
<glyph name="gravecomb" format="2">
	<advance width="281"/>
	<unicode hex="0300"/>
	<anchor x="151" y="510" name="_top"/>
	<anchor x="151" y="730" name="top"/>
	<outline>
		<contour>
			<point x="148" y="588" type="line"/>
			<point x="213" y="588" type="line"/>
			<point x="132" y="730" type="line"/>
			<point x="24" y="730" type="line"/>
		</contour>
	</outline>
</glyph>
<glyph name="acutecomb" format="2">
	<advance width="296"/>
	<unicode hex="0301"/>
	<anchor x="125" y="510" name="_top"/>
	<anchor x="125" y="730" name="top"/>
	<outline>
		<contour>
			<point x="63" y="588" type="line"/>
			<point x="128" y="588" type="line"/>
			<point x="252" y="730" type="line"/>
			<point x="144" y="730" type="line"/>
		</contour>
	</outline>
</glyph>
<glyph name="circumflexcomb" format="2">
	<advance width="380"/>
	<unicode hex="0302"/>
	<anchor x="194" y="510" name="_top"/>
	<anchor x="194" y="730" name="top"/>
	<outline>
		<contour>
			<point x="44" y="588" type="line"/>
			<point x="116" y="588" type="line"/>
			<point x="191" y="681" type="line"/>
			<point x="265" y="588" type="line"/>
			<point x="344" y="588" type="line"/>
			<point x="241" y="730" type="line"/>
			<point x="145" y="730" type="line"/>
		</contour>
	</outline>
</glyph>
<glyph name="tildecomb" format="2">
	<advance width="390"/>
	<unicode hex="0303"/>
	<anchor x="195" y="510" name="_top"/>
	<anchor x="195" y="710" name="top"/>
	<outline>
		<contour>
			<point x="97" y="602" type="line"/>
			<point x="111" y="628"/>
			<point x="126" y="637"/>
			<point x="146" y="637" type="curve" smooth="yes"/>
			<point x="176" y="637"/>
			<point x="207" y="600"/>
			<point x="251" y="600" type="curve" smooth="yes"/>
			<point x="292" y="600"/>
			<point x="322" y="626"/>
			<point x="347" y="674" type="curve"/>
			<point x="293" y="705" type="line"/>
			<point x="280" y="681"/>
			<point x="266" y="672"/>
			<point x="249" y="672" type="curve" smooth="yes"/>
			<point x="219" y="672"/>
			<point x="182" y="710"/>
			<point x="139" y="710" type="curve" smooth="yes"/>
			<point x="95" y="710"/>
			<point x="65" y="683"/>
			<point x="43" y="634" type="curve"/>
		</contour>
	</outline>
</glyph>
<glyph name="macroncomb" format="2">
	<advance width="399"/>
	<unicode hex="0304"/>
	<anchor x="200" y="510" name="_top"/>
	<anchor x="200" y="678" name="top"/>
	<outline>
		<contour>
			<point x="63" y="608" type="line"/>
			<point x="336" y="608" type="line"/>
			<point x="336" y="678" type="line"/>
			<point x="63" y="678" type="line"/>
		</contour>
	</outline>
</glyph>
<glyph name="brevecomb" format="2">
	<advance width="378"/>
	<unicode hex="0306"/>
	<anchor x="189" y="510" name="_top"/>
	<anchor x="189" y="704" name="top"/>
	<outline>
		<contour>
			<point x="189" y="576" type="curve" smooth="yes"/>
			<point x="266" y="576"/>
			<point x="318" y="615"/>
			<point x="337" y="681" type="curve"/>
			<point x="266" y="706" type="line"/>
			<point x="254" y="664"/>
			<point x="230" y="641"/>
			<point x="189" y="641" type="curve" smooth="yes"/>
			<point x="148" y="641"/>
			<point x="124" y="664"/>
			<point x="112" y="706" type="curve"/>
			<point x="41" y="681" type="line"/>
			<point x="60" y="615"/>
			<point x="112" y="576"/>
		</contour>
	</outline>
</glyph>
<glyph name="dotaccentcomb" format="2">
	<advance width="231"/>
	<unicode hex="0307"/>
	<anchor x="114" y="510" name="_top"/>
	<anchor x="114" y="706" name="top"/>
	<outline>
		<contour>
			<point x="71" y="606" type="line"/>
			<point x="157" y="606" type="line"/>
			<point x="157" y="706" type="line"/>
			<point x="71" y="706" type="line"/>
		</contour>
	</outline>
</glyph>
<glyph name="dieresiscomb" format="2">
	<advance width="412"/>
	<unicode hex="0308"/>
	<anchor x="206" y="510" name="_top"/>
	<anchor x="206" y="706" name="top"/>
	<outline>
		<contour>
			<point x="255" y="606" type="line"/>
			<point x="340" y="606" type="line"/>
			<point x="340" y="706" type="line"/>
			<point x="255" y="706" type="line"/>
		</contour>
		<contour>
			<point x="72" y="606" type="line"/>
			<point x="157" y="606" type="line"/>
			<point x="157" y="706" type="line"/>
			<point x="72" y="706" type="line"/>
		</contour>
	</outline>
</glyph>
<glyph name="ringcomb" format="2">
	<advance width="306"/>
	<unicode hex="030A"/>
	<anchor x="154" y="509" name="_top"/>
	<outline>
		<contour>
			<point x="155" y="554" type="curve" smooth="yes"/>
			<point x="212" y="554"/>
			<point x="264" y="590"/>
			<point x="264" y="657" type="curve" smooth="yes"/>
			<point x="264" y="725"/>
			<point x="211" y="760"/>
			<point x="153" y="760" type="curve" smooth="yes"/>
			<point x="96" y="760"/>
			<point x="43" y="725"/>
			<point x="43" y="657" type="curve" smooth="yes"/>
			<point x="43" y="590"/>
			<point x="97" y="554"/>
		</contour>
		<contour>
			<point x="154" y="604" type="curve" smooth="yes"/>
			<point x="127" y="604"/>
			<point x="100" y="622"/>
			<point x="100" y="657" type="curve" smooth="yes"/>
			<point x="100" y="693"/>
			<point x="126" y="711"/>
			<point x="153" y="711" type="curve" smooth="yes"/>
			<point x="180" y="711"/>
			<point x="207" y="694"/>
			<point x="207" y="657" type="curve" smooth="yes"/>
			<point x="207" y="622"/>
			<point x="182" y="604"/>
		</contour>
	</outline>
</glyph>
<glyph name="hungarumlautcomb" format="2">
	<advance width="404"/>
	<unicode hex="030B"/>
	<anchor x="169" y="510" name="_top"/>
	<anchor x="169" y="730" name="top"/>
	<outline>
		<contour>
			<point x="201" y="588" type="line"/>
			<point x="266" y="588" type="line"/>
			<point x="390" y="730" type="line"/>
			<point x="282" y="730" type="line"/>
		</contour>
		<contour>
			<point x="42" y="588" type="line"/>
			<point x="103" y="588" type="line"/>
			<point x="217" y="730" type="line"/>
			<point x="113" y="730" type="line"/>
		</contour>
	</outline>
</glyph>
<glyph name="caroncomb" format="2">
	<advance width="380"/>
	<unicode hex="030C"/>
	<anchor x="194" y="510" name="_top"/>
	<anchor x="194" y="730" name="top"/>
	<outline>
		<contour>
			<point x="147" y="588" type="line"/>
			<point x="243" y="588" type="line"/>
			<point x="344" y="730" type="line"/>
			<point x="272" y="730" type="line"/>
			<point x="197" y="637" type="line"/>
			<point x="123" y="730" type="line"/>
			<point x="44" y="730" type="line"/>
		</contour>
	</outline>
</glyph>
<glyph name="commaaccentcomb" format="2">
	<advance width="232"/>
	<unicode hex="0326"/>
	<anchor x="137" y="0" name="_bottom"/>
	<anchor x="135" y="-279" name="bottom"/>
	<outline>
		<contour>
			<point x="117" y="-279" type="line"/>
			<point x="168" y="-243"/>
			<point x="180" y="-203"/>
			<point x="180" y="-136" type="curve" smooth="yes"/>
			<point x="180" y="-72" type="line"/>
			<point x="95" y="-72" type="line"/>
			<point x="95" y="-162" type="line"/>
			<point x="164" y="-162" type="line"/>
			<point x="137" y="-150" type="line"/>
			<point x="140" y="-190"/>
			<point x="130" y="-217"/>
			<point x="91" y="-241" type="curve"/>
		</contour>
	</outline>
</glyph>
<glyph name="cedillacomb" format="2">
	<advance width="313"/>
	<unicode hex="0327"/>
	<anchor x="157" y="0" name="_bottom"/>
	<outline>
		<contour>
			<point x="146" y="-214" type="curve" smooth="yes"/>
			<point x="206" y="-214"/>
			<point x="253" y="-181"/>
			<point x="253" y="-128" type="curve" smooth="yes"/>
			<point x="253" y="-70"/>
			<point x="198" y="-48"/>
			<point x="141" y="-46" type="curve"/>
			<point x="149" y="-65" type="line"/>
			<point x="188" y="-2" type="line"/>
			<point x="128" y="-2" type="line"/>
			<point x="96" y="-52" type="line"/>
			<point x="96" y="-95" type="line"/>
			<point x="108" y="-92"/>
			<point x="119" y="-91"/>
			<point x="131" y="-91" type="curve" smooth="yes"/>
			<point x="162" y="-91"/>
			<point x="188" y="-102"/>
			<point x="188" y="-127" type="curve" smooth="yes"/>
			<point x="188" y="-149"/>
			<point x="165" y="-155"/>
			<point x="139" y="-155" type="curve" smooth="yes"/>
			<point x="122" y="-155"/>
			<point x="95" y="-148"/>
			<point x="71" y="-133" type="curve"/>
			<point x="42" y="-188" type="line"/>
			<point x="72" y="-205"/>
			<point x="106" y="-214"/>
		</contour>
	</outline>
</glyph>
<glyph name="ogonekcomb" format="2">
	<advance width="262"/>
	<unicode hex="0328"/>
	<anchor x="214" y="0" name="_ogonek"/>
	<outline>
		<contour>
			<point x="141" y="-215" type="curve" smooth="yes"/>
			<point x="172" y="-215"/>
			<point x="204" y="-207"/>
			<point x="228" y="-190" type="curve"/>
			<point x="206" y="-128" type="line"/>
			<point x="193" y="-138"/>
			<point x="177" y="-145"/>
			<point x="161" y="-145" type="curve" smooth="yes"/>
			<point x="135" y="-145"/>
			<point x="123" y="-132"/>
			<point x="123" y="-112" type="curve" smooth="yes"/>
			<point x="123" y="-82"/>
			<point x="155" y="-40"/>
			<point x="205" y="0" type="curve"/>
			<point x="156" y="30" type="line"/>
			<point x="87" y="-23"/>
			<point x="45" y="-76"/>
			<point x="45" y="-130" type="curve" smooth="yes"/>
			<point x="45" y="-177"/>
			<point x="76" y="-215"/>
		</contour>
	</outline>
</glyph>
<glyph name="Germandbls" format="2">
	<advance width="685"/>
	<unicode hex="1E9E"/>
	<outline>
		<contour>
			<point x="76" y="0" type="line"/>
			<point x="171" y="0" type="line"/>
			<point x="171" y="461" type="line" smooth="yes"/>
			<point x="171" y="579"/>
			<point x="233" y="642"/>
			<point x="344" y="642" type="curve" smooth="yes"/>
			<point x="405" y="642"/>
			<point x="447" y="636"/>
			<point x="499" y="623" type="curve"/>
			<point x="496" y="649" type="line"/>
			<point x="315" y="429" type="line"/>
			<point x="315" y="359" type="line"/>
			<point x="345" y="364"/>
			<point x="374" y="366"/>
			<point x="393" y="366" type="curve" smooth="yes"/>
			<point x="493" y="366"/>
			<point x="551" y="309"/>
			<point x="551" y="225" type="curve" smooth="yes"/>
			<point x="551" y="141"/>
			<point x="492" y="84"/>
			<point x="391" y="84" type="curve" smooth="yes"/>
			<point x="359" y="84"/>
			<point x="330" y="90"/>
			<point x="269" y="107" type="curve"/>
			<point x="248" y="22" type="line"/>
			<point x="316" y="2"/>
			<point x="376" y="0"/>
			<point x="397" y="0" type="curve" smooth="yes"/>
			<point x="546" y="0"/>
			<point x="646" y="93"/>
			<point x="646" y="226" type="curve" smooth="yes"/>
			<point x="646" y="349"/>
			<point x="558" y="444"/>
			<point x="419" y="444" type="curve" smooth="yes"/>
			<point x="382" y="444" type="line"/>
			<point x="402" y="407" type="line"/>
			<point x="593" y="623" type="line"/>
			<point x="593" y="686" type="line"/>
			<point x="513" y="705"/>
			<point x="427" y="722"/>
			<point x="348" y="722" type="curve" smooth="yes"/>
			<point x="170" y="722"/>
			<point x="76" y="631"/>
			<point x="76" y="461" type="curve" smooth="yes"/>
		</contour>
	</outline>
</glyph>
<glyph name="endash" format="2">
	<advance width="600"/>
	<unicode hex="2013"/>
	<outline>
		<contour>
			<point x="50" y="238" type="line"/>
			<point x="550" y="238" type="line"/>
			<point x="550" y="318" type="line"/>
			<point x="50" y="318" type="line"/>
		</contour>
	</outline>
</glyph>
<glyph name="emdash" format="2">
	<advance width="920"/>
	<unicode hex="2014"/>
	<outline>
		<contour>
			<point x="90" y="238" type="line"/>
			<point x="830" y="238" type="line"/>
			<point x="830" y="318" type="line"/>
			<point x="90" y="318" type="line"/>
		</contour>
	</outline>
</glyph>
<glyph name="bullet" format="2">
	<advance width="460"/>
	<unicode hex="2022"/>
	<outline>
		<contour>
			<point x="80" y="210" type="line"/>
			<point x="380" y="210" type="line"/>
			<point x="380" y="510" type="line"/>
			<point x="80" y="510" type="line"/>
		</contour>
	</outline>
</glyph>
<glyph name="ellipsis" format="2">
	<advance width="944"/>
	<unicode hex="2026"/>
	<outline>
		<contour>
			<point x="749" y="0" type="line"/>
			<point x="861" y="0" type="line"/>
			<point x="861" y="112" type="line"/>
			<point x="749" y="112" type="line"/>
		</contour>
		<contour>
			<point x="83" y="0" type="line"/>
			<point x="195" y="0" type="line"/>
			<point x="195" y="112" type="line"/>
			<point x="83" y="112" type="line"/>
		</contour>
		<contour>
			<point x="416" y="0" type="line"/>
			<point x="528" y="0" type="line"/>
			<point x="528" y="112" type="line"/>
			<point x="416" y="112" type="line"/>
		</contour>
	</outline>
</glyph>
<glyph name="guilsinglleft" format="2">
	<advance width="263"/>
	<unicode hex="2039"/>
	<outline>
		<contour>
			<point x="206" y="111" type="line"/>
			<point x="206" y="198" type="line"/>
			<point x="67" y="306" type="line"/>
			<point x="68" y="253" type="line"/>
			<point x="206" y="359" type="line"/>
			<point x="206" y="445" type="line"/>
			<point x="50" y="323" type="line"/>
			<point x="50" y="235" type="line"/>
		</contour>
	</outline>
</glyph>
<glyph name="euro" format="2">
	<advance width="702"/>
	<unicode hex="20AC"/>
	<outline>
		<contour>
			<point x="401" y="-16" type="curve" smooth="yes"/>
			<point x="490" y="-16"/>
			<point x="590" y="23"/>
			<point x="654" y="152" type="curve"/>
			<point x="568" y="183" type="line"/>
			<point x="530" y="97"/>
			<point x="466" y="63"/>
			<point x="401" y="63" type="curve" smooth="yes"/>
			<point x="281" y="63"/>
			<point x="208" y="184"/>
			<point x="208" y="354" type="curve" smooth="yes"/>
			<point x="208" y="518"/>
			<point x="281" y="642"/>
			<point x="410" y="642" type="curve" smooth="yes"/>
			<point x="476" y="642"/>
			<point x="540" y="609"/>
			<point x="577" y="523" type="curve"/>
			<point x="662" y="555" type="line"/>
			<point x="599" y="683"/>
			<point x="499" y="722"/>
			<point x="410" y="722" type="curve" smooth="yes"/>
			<point x="228" y="722"/>
			<point x="113" y="558"/>
			<point x="113" y="354" type="curve" smooth="yes"/>
			<point x="113" y="141"/>
			<point x="232" y="-16"/>
		</contour>
		<contour>
			<point x="33" y="257" type="line"/>
			<point x="577" y="257" type="line"/>
			<point x="577" y="327" type="line"/>
			<point x="33" y="327" type="line"/>
		</contour>
		<contour>
			<point x="33" y="381" type="line"/>
			<point x="577" y="381" type="line"/>
			<point x="577" y="451" type="line"/>
			<point x="33" y="451" type="line"/>
		</contour>
	</outline>
</glyph>
<glyph name="ruble" format="2">
	<advance width="621"/>
	<unicode hex="20BD"/>
	<outline>
		<contour>
			<point x="127" y="0" type="line"/>
			<point x="222" y="0" type="line"/>
			<point x="222" y="630" type="line"/>
			<point x="370" y="630" type="line" smooth="yes"/>
			<point x="454" y="630"/>
			<point x="506" y="577"/>
			<point x="506" y="504" type="curve" smooth="yes"/>
			<point x="506" y="430"/>
			<point x="471" y="360"/>
			<point x="358" y="360" type="curve" smooth="yes"/>
			<point x="38" y="360" type="line"/>
			<point x="38" y="288" type="line"/>
			<point x="364" y="288" type="line" smooth="yes"/>
			<point x="529" y="288"/>
			<point x="601" y="397"/>
			<point x="601" y="504" type="curve" smooth="yes"/>
			<point x="601" y="607"/>
			<point x="525" y="706"/>
			<point x="376" y="706" type="curve" smooth="yes"/>
			<point x="127" y="706" type="line"/>
		</contour>
		<contour>
			<point x="38" y="158" type="line"/>
			<point x="485" y="158" type="line"/>
			<point x="485" y="228" type="line"/>
			<point x="38" y="228" type="line"/>
		</contour>
	</outline>
</glyph>
<glyph name="bitcoin" format="2">
	<advance width="618"/>
	<unicode hex="20BF"/>
	<outline>
		<contour>
			<point x="78" y="0" type="line"/>
			<point x="352" y="0" type="line" smooth="yes"/>
			<point x="480" y="0"/>
			<point x="573" y="79"/>
			<point x="573" y="197" type="curve" smooth="yes"/>
			<point x="573" y="295"/>
			<point x="524" y="354"/>
			<point x="438" y="373" type="curve"/>
			<point x="438" y="375" type="line"/>
			<point x="506" y="403"/>
			<point x="543" y="461"/>
			<point x="543" y="524" type="curve" smooth="yes"/>
			<point x="543" y="643"/>
			<point x="472" y="706"/>
			<point x="332" y="706" type="curve" smooth="yes"/>
			<point x="78" y="706" type="line"/>
		</contour>
		<contour>
			<point x="201" y="-116" type="line"/>
			<point x="271" y="-116" type="line"/>
			<point x="271" y="34" type="line"/>
			<point x="201" y="34" type="line"/>
		</contour>
		<contour>
			<point x="325" y="-116" type="line"/>
			<point x="395" y="-116" type="line"/>
			<point x="395" y="34" type="line"/>
			<point x="325" y="34" type="line"/>
		</contour>
		<contour>
			<point x="173" y="80" type="line"/>
			<point x="173" y="626" type="line"/>
			<point x="321" y="626" type="line" smooth="yes"/>
			<point x="396" y="626"/>
			<point x="448" y="596"/>
			<point x="448" y="516" type="curve" smooth="yes"/>
			<point x="448" y="444"/>
			<point x="400" y="403"/>
			<point x="317" y="403" type="curve" smooth="yes"/>
			<point x="154" y="403" type="line"/>
			<point x="154" y="323" type="line"/>
			<point x="339" y="323" type="line" smooth="yes"/>
			<point x="422" y="323"/>
			<point x="478" y="276"/>
			<point x="478" y="205" type="curve" smooth="yes"/>
			<point x="478" y="127"/>
			<point x="423" y="80"/>
			<point x="342" y="80" type="curve" smooth="yes"/>
		</contour>
		<contour>
			<point x="201" y="653" type="line"/>
			<point x="271" y="653" type="line"/>
			<point x="271" y="822" type="line"/>
			<point x="201" y="822" type="line"/>
		</contour>
		<contour>
			<point x="325" y="653" type="line"/>
			<point x="395" y="653" type="line"/>
			<point x="395" y="822" type="line"/>
			<point x="325" y="822" type="line"/>
		</contour>
	</outline>
</glyph>
<glyph name="trademark" format="2">
	<advance width="762"/>
	<unicode hex="2122"/>
	<guideline x="275" y="385" angle="0"/>
	<outline>
		<contour>
			<point x="374" y="385" type="line"/>
			<point x="434" y="385" type="line"/>
			<point x="434" y="660" type="line"/>
			<point x="424" y="659" type="line"/>
			<point x="504" y="385" type="line"/>
			<point x="562" y="385" type="line"/>
			<point x="648" y="657" type="line"/>
			<point x="638" y="660" type="line"/>
			<point x="638" y="385" type="line"/>
			<point x="698" y="385" type="line"/>
			<point x="698" y="706" type="line"/>
			<point x="612" y="706" type="line"/>
			<point x="532" y="444" type="line"/>
			<point x="539" y="444" type="line"/>
			<point x="460" y="706" type="line"/>
			<point x="374" y="706" type="line"/>
		</contour>
		<contour>
			<point x="169" y="385" type="line"/>
			<point x="229" y="385" type="line"/>
			<point x="229" y="662" type="line"/>
			<point x="169" y="662" type="line"/>
		</contour>
		<contour>
			<point x="64" y="652" type="line"/>
			<point x="332" y="652" type="line"/>
			<point x="332" y="706" type="line"/>
			<point x="64" y="706" type="line"/>
		</contour>
	</outline>
</glyph>
<glyph name="minus" format="2">
	<advance width="600"/>
	<unicode hex="2212"/>
	<outline>
		<contour>
			<point x="48" y="218" type="line"/>
			<point x="552" y="218" type="line"/>
			<point x="552" y="288" type="line"/>
			<point x="48" y="288" type="line"/>
		</contour>
	</outline>
</glyph>
<glyph name="approxequal" format="2">
	<advance width="580"/>
	<unicode hex="2248"/>
	<outline>
		<contour>
			<point x="98" y="307" type="line"/>
			<point x="123" y="351"/>
			<point x="155" y="374"/>
			<point x="189" y="374" type="curve" smooth="yes"/>
			<point x="222" y="374"/>
			<point x="248" y="359"/>
			<point x="283" y="339" type="curve" smooth="yes"/>
			<point x="315" y="321"/>
			<point x="354" y="298"/>
			<point x="399" y="298" type="curve" smooth="yes"/>
			<point x="455" y="298"/>
			<point x="499" y="329"/>
			<point x="540" y="399" type="curve"/>
			<point x="484" y="435" type="line"/>
			<point x="453" y="385"/>
			<point x="428" y="368"/>
			<point x="399" y="368" type="curve" smooth="yes"/>
			<point x="372" y="368"/>
			<point x="349" y="381"/>
			<point x="317" y="399" type="curve" smooth="yes"/>
			<point x="284" y="419"/>
			<point x="242" y="444"/>
			<point x="189" y="444" type="curve" smooth="yes"/>
			<point x="127" y="444"/>
			<point x="72" y="404"/>
			<point x="40" y="337" type="curve"/>
		</contour>
		<contour>
			<point x="98" y="136" type="line"/>
			<point x="123" y="180"/>
			<point x="155" y="203"/>
			<point x="189" y="203" type="curve" smooth="yes"/>
			<point x="216" y="203"/>
			<point x="238" y="195"/>
			<point x="284" y="168" type="curve" smooth="yes"/>
			<point x="316" y="150"/>
			<point x="355" y="127"/>
			<point x="399" y="127" type="curve" smooth="yes"/>
			<point x="455" y="127"/>
			<point x="496" y="156"/>
			<point x="540" y="227" type="curve"/>
			<point x="484" y="263" type="line"/>
			<point x="451" y="212"/>
			<point x="428" y="197"/>
			<point x="399" y="197" type="curve" smooth="yes"/>
			<point x="373" y="197"/>
			<point x="350" y="210"/>
			<point x="318" y="228" type="curve" smooth="yes"/>
			<point x="285" y="248"/>
			<point x="241" y="273"/>
			<point x="189" y="273" type="curve" smooth="yes"/>
			<point x="127" y="273"/>
			<point x="72" y="233"/>
			<point x="40" y="166" type="curve"/>
		</contour>
	</outline>
</glyph>
<glyph name="notequal" format="2">
	<advance width="600"/>
	<unicode hex="2260"/>
	<outline>
		<contour>
			<point x="190" y="11" type="line"/>
			<point x="454" y="465" type="line"/>
			<point x="398" y="496" type="line"/>
			<point x="135" y="45" type="line"/>
		</contour>
		<component base="equal" yOffset="1"/>
	</outline>
</glyph>
<glyph name="greaterequal" format="2">
	<advance width="549"/>
	<unicode hex="2265"/>
	<outline>
		<contour>
			<point x="51" y="96" type="line"/>
			<point x="502" y="320" type="line"/>
			<point x="502" y="374" type="line"/>
			<point x="51" y="598" type="line"/>
			<point x="51" y="517" type="line"/>
			<point x="447" y="328" type="line"/>
			<point x="447" y="366" type="line"/>
			<point x="51" y="176" type="line"/>
		</contour>
		<contour>
			<point x="46" y="3" type="line"/>
			<point x="503" y="3" type="line"/>
			<point x="503" y="73" type="line"/>
			<point x="46" y="73" type="line"/>
		</contour>
	</outline>
</glyph>
<glyph name="acutecomb.case" format="2">
	<advance width="296"/>
	<guideline x="-1" y="885" angle="238.9774"/>
	<guideline x="253" y="779" angle="240"/>
	<guideline x="122" y="858" angle="220.7388"/>
	<anchor x="156" y="706" name="_top"/>
	<anchor x="156" y="900" name="top"/>
	<outline>
		<contour>
			<point x="94" y="758" type="line"/>
			<point x="159" y="758" type="line"/>
			<point x="283" y="900" type="line"/>
			<point x="175" y="900" type="line"/>
		</contour>
	</outline>
</glyph>
<glyph name="brevecomb.case" format="2">
	<advance width="378"/>
	<guideline x="83" y="883" angle="197.8189"/>
	<anchor x="189" y="706" name="_top"/>
	<anchor x="189" y="895" name="top"/>
	<outline>
		<contour>
			<point x="189" y="765" type="curve" smooth="yes"/>
			<point x="266" y="765"/>
			<point x="318" y="804"/>
			<point x="337" y="870" type="curve"/>
			<point x="266" y="895" type="line"/>
			<point x="254" y="853"/>
			<point x="230" y="830"/>
			<point x="189" y="830" type="curve" smooth="yes"/>
			<point x="148" y="830"/>
			<point x="124" y="853"/>
			<point x="112" y="895" type="curve"/>
			<point x="41" y="870" type="line"/>
			<point x="60" y="804"/>
			<point x="112" y="765"/>
		</contour>
	</outline>
</glyph>
<glyph name="brevecomb.case.narrow" format="2">
	<advance width="378"/>
	<guideline x="83" y="883" angle="197.8189"/>
	<anchor x="189" y="706" name="_top"/>
	<anchor x="189" y="895" name="top"/>
	<outline>
		<contour>
			<point x="189" y="765" type="curve" smooth="yes"/>
			<point x="260" y="765"/>
			<point x="307" y="804"/>
			<point x="326" y="870" type="curve"/>
			<point x="255" y="895" type="line"/>
			<point x="243" y="853"/>
			<point x="224" y="830"/>
			<point x="189" y="830" type="curve" smooth="yes"/>
			<point x="154" y="830"/>
			<point x="135" y="853"/>
			<point x="123" y="895" type="curve"/>
			<point x="52" y="870" type="line"/>
			<point x="71" y="804"/>
			<point x="118" y="765"/>
		</contour>
	</outline>
</glyph>
<glyph name="caroncomb.case" format="2">
	<advance width="380"/>
	<anchor x="194" y="706" name="_top"/>
	<anchor x="194" y="900" name="top"/>
	<outline>
		<contour>
			<point x="147" y="758" type="line"/>
			<point x="243" y="758" type="line"/>
			<point x="344" y="900" type="line"/>
			<point x="272" y="900" type="line"/>
			<point x="197" y="807" type="line"/>
			<point x="123" y="900" type="line"/>
			<point x="44" y="900" type="line"/>
		</contour>
	</outline>
</glyph>
<glyph name="cedillacomb.case" format="2">
	<advance width="313"/>
	<anchor x="168" y="0" name="_bottom"/>
	<outline>
		<contour>
			<point x="156" y="-220" type="curve" smooth="yes"/>
			<point x="219" y="-220"/>
			<point x="269" y="-190"/>
			<point x="269" y="-130" type="curve" smooth="yes"/>
			<point x="269" y="-63"/>
			<point x="209" y="-48"/>
			<point x="151" y="-48" type="curve"/>
			<point x="162" y="-67" type="line"/>
			<point x="201" y="0" type="line"/>
			<point x="135" y="0" type="line"/>
			<point x="103" y="-54" type="line"/>
			<point x="103" y="-97" type="line"/>
			<point x="116" y="-94"/>
			<point x="127" y="-93"/>
			<point x="137" y="-93" type="curve" smooth="yes"/>
			<point x="170" y="-93"/>
			<point x="199" y="-103"/>
			<point x="199" y="-128" type="curve" smooth="yes"/>
			<point x="199" y="-153"/>
			<point x="176" y="-160"/>
			<point x="148" y="-160" type="curve" smooth="yes"/>
			<point x="122" y="-160"/>
			<point x="98" y="-151"/>
			<point x="77" y="-137" type="curve"/>
			<point x="48" y="-193" type="line"/>
			<point x="79" y="-211"/>
			<point x="114" y="-220"/>
		</contour>
	</outline>
</glyph>
<glyph name="circumflexcomb.case" format="2">
	<advance width="380"/>
	<anchor x="194" y="706" name="_top"/>
	<anchor x="194" y="900" name="top"/>
	<outline>
		<contour>
			<point x="44" y="758" type="line"/>
			<point x="116" y="758" type="line"/>
			<point x="191" y="851" type="line"/>
			<point x="265" y="758" type="line"/>
			<point x="344" y="758" type="line"/>
			<point x="241" y="900" type="line"/>
			<point x="145" y="900" type="line"/>
		</contour>
	</outline>
</glyph>
<glyph name="circumflexcomb.case.narrow" format="2">
	<advance width="380"/>
	<anchor x="194" y="706" name="_top"/>
	<anchor x="194" y="900" name="top"/>
	<outline>
		<contour>
			<point x="57" y="758" type="line"/>
			<point x="129" y="758" type="line"/>
			<point x="191" y="851" type="line"/>
			<point x="252" y="758" type="line"/>
			<point x="331" y="758" type="line"/>
			<point x="241" y="900" type="line"/>
			<point x="145" y="900" type="line"/>
		</contour>
	</outline>
</glyph>
<glyph name="commaaccentcomb.case" format="2">
	<advance width="232"/>
	<anchor x="136" y="0" name="_bottom"/>
	<anchor x="136" y="-279" name="bottom"/>
	<outline>
		<contour>
			<point x="118" y="-279" type="line"/>
			<point x="169" y="-243"/>
			<point x="181" y="-203"/>
			<point x="181" y="-136" type="curve" smooth="yes"/>
			<point x="181" y="-72" type="line"/>
			<point x="91" y="-72" type="line"/>
			<point x="91" y="-162" type="line"/>
			<point x="165" y="-162" type="line"/>
			<point x="138" y="-150" type="line"/>
			<point x="141" y="-190"/>
			<point x="131" y="-217"/>
			<point x="92" y="-241" type="curve"/>
		</contour>
	</outline>
</glyph>
<glyph name="commaturnedabovecomb.case" format="2">
	<advance width="232"/>
	<anchor x="110" y="680" name="_top"/>
	<outline>
		<contour>
			<point x="66" y="771" type="curve"/>
			<point x="151" y="771" type="line"/>
			<point x="151" y="843"/>
			<point x="164" y="903"/>
			<point x="180" y="953" type="curve"/>
			<point x="119" y="953" type="line"/>
			<point x="90" y="906"/>
			<point x="72" y="846"/>
		</contour>
	</outline>
</glyph>
<glyph name="dieresiscomb.case" format="2">
	<advance width="412"/>
	<anchor x="206" y="706" name="_top"/>
	<anchor x="206" y="880" name="top"/>
	<outline>
		<contour>
			<point x="67" y="780" type="line"/>
			<point x="157" y="780" type="line"/>
			<point x="157" y="880" type="line"/>
			<point x="67" y="880" type="line"/>
		</contour>
		<contour>
			<point x="255" y="780" type="line"/>
			<point x="345" y="780" type="line"/>
			<point x="345" y="880" type="line"/>
			<point x="255" y="880" type="line"/>
		</contour>
	</outline>
</glyph>
<glyph name="dieresiscomb.case.narrow" format="2">
	<advance width="412"/>
	<anchor x="206" y="706" name="_top"/>
	<anchor x="206" y="880" name="top"/>
	<outline>
		<contour>
			<point x="74" y="778" type="line"/>
			<point x="164" y="778" type="line"/>
			<point x="164" y="880" type="line"/>
			<point x="74" y="880" type="line"/>
		</contour>
		<contour>
			<point x="248" y="778" type="line"/>
			<point x="338" y="778" type="line"/>
			<point x="338" y="880" type="line"/>
			<point x="248" y="880" type="line"/>
		</contour>
	</outline>
</glyph>
<glyph name="dieresiscomb.narrow" format="2">
	<advance width="413"/>
	<anchor x="207" y="510" name="_top"/>
	<anchor x="207" y="706" name="top"/>
	<outline>
		<contour>
			<point x="245" y="605" type="line"/>
			<point x="330" y="605" type="line"/>
			<point x="330" y="706" type="line"/>
			<point x="245" y="706" type="line"/>
		</contour>
		<contour>
			<point x="84" y="605" type="line"/>
			<point x="169" y="605" type="line"/>
			<point x="169" y="706" type="line"/>
			<point x="84" y="706" type="line"/>
		</contour>
	</outline>
</glyph>
<glyph name="dotaccentcomb.case" format="2">
	<advance width="230"/>
	<anchor x="115" y="706" name="_top"/>
	<anchor x="115" y="880" name="top"/>
	<outline>
		<contour>
			<point x="70" y="780" type="line"/>
			<point x="160" y="780" type="line"/>
			<point x="160" y="880" type="line"/>
			<point x="70" y="880" type="line"/>
		</contour>
	</outline>
</glyph>
<glyph name="emdash.case" format="2">
	<advance width="860"/>
	<outline>
		<contour>
			<point x="60" y="298" type="line"/>
			<point x="800" y="298" type="line"/>
			<point x="800" y="378" type="line"/>
			<point x="60" y="378" type="line"/>
		</contour>
	</outline>
</glyph>
<glyph name="gravecomb.case" format="2">
	<advance width="281"/>
	<anchor x="151" y="706" name="_top"/>
	<anchor x="151" y="900" name="top"/>
	<outline>
		<contour>
			<point x="148" y="758" type="line"/>
			<point x="213" y="758" type="line"/>
			<point x="132" y="900" type="line"/>
			<point x="24" y="900" type="line"/>
		</contour>
	</outline>
</glyph>
<glyph name="hungarumlautcomb.case" format="2">
	<advance width="404"/>
	<anchor x="164" y="706" name="_top"/>
	<anchor x="164" y="900" name="top"/>
	<outline>
		<contour>
			<point x="201" y="758" type="line"/>
			<point x="266" y="758" type="line"/>
			<point x="390" y="900" type="line"/>
			<point x="282" y="900" type="line"/>
		</contour>
		<contour>
			<point x="42" y="758" type="line"/>
			<point x="103" y="758" type="line"/>
			<point x="217" y="900" type="line"/>
			<point x="113" y="900" type="line"/>
		</contour>
	</outline>
</glyph>
<glyph name="hyphen.case" format="2">
	<advance width="409"/>
	<outline>
		<contour>
			<point x="60" y="298" type="line"/>
			<point x="349" y="298" type="line"/>
			<point x="349" y="378" type="line"/>
			<point x="60" y="378" type="line"/>
		</contour>
	</outline>
</glyph>
<glyph name="macroncomb.case.narrow" format="2">
	<advance width="399"/>
	<anchor x="197" y="706" name="_top"/>
	<anchor x="197" y="848" name="top"/>
	<outline>
		<contour>
			<point x="87" y="778" type="line"/>
			<point x="307" y="778" type="line"/>
			<point x="307" y="848" type="line"/>
			<point x="87" y="848" type="line"/>
		</contour>
	</outline>
</glyph>
<glyph name="macroncomb.narrow" format="2">
	<advance width="399"/>
	<anchor x="199" y="510" name="_top"/>
	<anchor x="199" y="678" name="top"/>
	<outline>
		<contour>
			<point x="95" y="608" type="line"/>
			<point x="302" y="608" type="line"/>
			<point x="302" y="678" type="line"/>
			<point x="95" y="678" type="line"/>
		</contour>
	</outline>
</glyph>
<glyph name="ogonekcomb.case" format="2">
	<advance width="262"/>
	<anchor x="168" y="0" name="_ogonek"/>
	<outline>
		<contour>
			<point x="141" y="-221" type="curve" smooth="yes"/>
			<point x="172" y="-221"/>
			<point x="203" y="-212"/>
			<point x="228" y="-197" type="curve"/>
			<point x="206" y="-130" type="line"/>
			<point x="193" y="-140"/>
			<point x="178" y="-147"/>
			<point x="161" y="-147" type="curve" smooth="yes"/>
			<point x="136" y="-147"/>
			<point x="123" y="-134"/>
			<point x="123" y="-114" type="curve" smooth="yes"/>
			<point x="123" y="-79"/>
			<point x="154" y="-40"/>
			<point x="206" y="0" type="curve"/>
			<point x="148" y="28" type="line"/>
			<point x="80" y="-27"/>
			<point x="40" y="-78"/>
			<point x="40" y="-133" type="curve" smooth="yes"/>
			<point x="40" y="-186"/>
			<point x="75" y="-221"/>
		</contour>
	</outline>
</glyph>
<glyph name="pixel" format="2">
	<advance width="255"/>
	<outline>
		<contour>
			<point x="0" y="0" type="line"/>
			<point x="85" y="0" type="line"/>
			<point x="85" y="85" type="line"/>
			<point x="0" y="85" type="line"/>
		</contour>
	</outline>
</glyph>
<glyph name="pixel.small" format="2">
	<advance width="85"/>
	<outline>
		<contour>
			<point x="0" y="0" type="line"/>
			<point x="42.5" y="0" type="line"/>
			<point x="42.5" y="42.5" type="line"/>
			<point x="0" y="42.5" type="line"/>
		</contour>
	</outline>
</glyph>
<glyph name="ringcomb.case" format="2">
	<advance width="306"/>
	<anchor x="154" y="680" name="_top"/>
	<anchor x="153" y="931" name="top"/>
	<outline>
		<contour>
			<point x="155" y="725" type="curve" smooth="yes"/>
			<point x="212" y="725"/>
			<point x="264" y="761"/>
			<point x="264" y="828" type="curve" smooth="yes"/>
			<point x="264" y="896"/>
			<point x="211" y="931"/>
			<point x="153" y="931" type="curve" smooth="yes"/>
			<point x="96" y="931"/>
			<point x="43" y="896"/>
			<point x="43" y="828" type="curve" smooth="yes"/>
			<point x="43" y="761"/>
			<point x="97" y="725"/>
		</contour>
		<contour>
			<point x="154" y="775" type="curve" smooth="yes"/>
			<point x="127" y="775"/>
			<point x="100" y="793"/>
			<point x="100" y="828" type="curve" smooth="yes"/>
			<point x="100" y="864"/>
			<point x="126" y="882"/>
			<point x="153" y="882" type="curve" smooth="yes"/>
			<point x="180" y="882"/>
			<point x="207" y="865"/>
			<point x="207" y="828" type="curve" smooth="yes"/>
			<point x="207" y="793"/>
			<point x="182" y="775"/>
		</contour>
	</outline>
</glyph>
<glyph name="tildecomb.case" format="2">
	<advance width="390"/>
	<guideline x="306" y="878" angle="330.141"/>
	<guideline x="84" y="776" angle="330.141"/>
	<anchor x="195" y="706" name="_top"/>
	<anchor x="195" y="880" name="top"/>
	<outline>
		<contour>
			<point x="84" y="772" type="line"/>
			<point x="98" y="799"/>
			<point x="114" y="808"/>
			<point x="134" y="808" type="curve" smooth="yes"/>
			<point x="178" y="808"/>
			<point x="210" y="770"/>
			<point x="264" y="770" type="curve" smooth="yes"/>
			<point x="305" y="770"/>
			<point x="335" y="796"/>
			<point x="360" y="844" type="curve"/>
			<point x="306" y="875" type="line"/>
			<point x="292" y="850"/>
			<point x="277" y="841"/>
			<point x="259" y="841" type="curve" smooth="yes"/>
			<point x="220" y="841"/>
			<point x="181" y="880"/>
			<point x="126" y="880" type="curve" smooth="yes"/>
			<point x="82" y="880"/>
			<point x="52" y="853"/>
			<point x="30" y="804" type="curve"/>
		</contour>
	</outline>
</glyph>
<glyph name="tildecomb.case.narrow" format="2">
	<advance width="390"/>
	<guideline x="306" y="878" angle="330.141"/>
	<guideline x="84" y="776" angle="330.141"/>
	<anchor x="193" y="706" name="_top"/>
	<anchor x="193" y="880" name="top"/>
	<outline>
		<contour>
			<point x="99" y="772" type="line"/>
			<point x="111" y="799"/>
			<point x="125" y="808"/>
			<point x="143" y="808" type="curve" smooth="yes"/>
			<point x="180" y="808"/>
			<point x="196" y="770"/>
			<point x="251" y="770" type="curve" smooth="yes"/>
			<point x="289" y="770"/>
			<point x="317" y="796"/>
			<point x="340" y="844" type="curve"/>
			<point x="286" y="875" type="line"/>
			<point x="274" y="850"/>
			<point x="261" y="841"/>
			<point x="246" y="841" type="curve" smooth="yes"/>
			<point x="206" y="841"/>
			<point x="181" y="880"/>
			<point x="135" y="880" type="curve" smooth="yes"/>
			<point x="94" y="880"/>
			<point x="66" y="853"/>
			<point x="45" y="804" type="curve"/>
		</contour>
	</outline>
</glyph>
